<svg width="43" height="42" viewBox="0 0 43 42" fill="none" xmlns="http://www.w3.org/2000/svg">
<circle cx="21.6719" cy="21" r="21" fill="#F6F6FB"/>
<path d="M36.1836 23.6948V8.78516C36.1836 8.28352 35.777 7.87695 35.2754 7.87695H30.6738V6.9082C30.6738 6.40656 30.2673 6 29.7656 6C29.264 6 28.8574 6.40656 28.8574 6.9082V7.87695H25.2246V6.9082C25.2246 6.40656 24.818 6 24.3164 6C23.8148 6 23.4082 6.40656 23.4082 6.9082V7.87695H19.7754V6.9082C19.7754 6.40656 19.3688 6 18.8672 6C18.3655 6 17.959 6.40656 17.959 6.9082V7.87695H14.3262V6.9082C14.3262 6.40656 13.9196 6 13.418 6C12.9163 6 12.5098 6.40656 12.5098 6.9082V7.87695H7.9082C7.40656 7.87695 7 8.28352 7 8.78516V32.459C7 32.9606 7.40656 33.3672 7.9082 33.3672H23.0331C24.5014 35.5561 26.9982 37 29.8262 37C34.3331 37 38 33.3331 38 28.8262C38 26.8844 37.3188 25.0988 36.1836 23.6948ZM12.5098 9.69336V10.6016C12.5098 11.1032 12.9163 11.5098 13.418 11.5098C13.9196 11.5098 14.3262 11.1032 14.3262 10.6016V9.69336H17.959V10.6016C17.959 11.1032 18.3655 11.5098 18.8672 11.5098C19.3688 11.5098 19.7754 11.1032 19.7754 10.6016V9.69336H23.4082V10.6016C23.4082 11.1032 23.8148 11.5098 24.3164 11.5098C24.818 11.5098 25.2246 11.1032 25.2246 10.6016V9.69336H28.8574V10.6016C28.8574 11.1032 29.264 11.5098 29.7656 11.5098C30.2673 11.5098 30.6738 11.1032 30.6738 10.6016V9.69336H34.3672V13.3262H8.81641V9.69336H12.5098ZM8.81641 31.5508V15.1426H34.3672V22.0331C33.0676 21.1616 31.5052 20.6523 29.8262 20.6523C26.9563 20.6523 24.4276 22.1393 22.9688 24.3828C22.846 24.3209 22.7077 24.2852 22.5605 24.2852H20.7441C20.2425 24.2852 19.8359 24.6917 19.8359 25.1934C19.8359 25.695 20.2425 26.1016 20.7441 26.1016H22.1199C21.9149 26.6801 21.773 27.2884 21.7032 27.918H20.7441C20.2425 27.918 19.8359 28.3245 19.8359 28.8262C19.8359 29.3278 20.2425 29.7344 20.7441 29.7344H21.7032C21.773 30.364 21.9146 30.9723 22.1199 31.5508H8.81641ZM29.8262 35.1836C26.3206 35.1836 23.4688 32.3317 23.4688 28.8262C23.4688 25.3206 26.3206 22.4688 29.8262 22.4688C33.3317 22.4688 36.1836 25.3206 36.1836 28.8262C36.1836 32.3317 33.3317 35.1836 29.8262 35.1836Z" fill="#111218"/>
<path d="M33.459 27.918H30.7344V25.1934C30.7344 24.6917 30.3278 24.2852 29.8262 24.2852C29.3245 24.2852 28.918 24.6917 28.918 25.1934V28.8262C28.918 29.3278 29.3245 29.7344 29.8262 29.7344H33.459C33.9606 29.7344 34.3672 29.3278 34.3672 28.8262C34.3672 28.3245 33.9606 27.918 33.459 27.918Z" fill="#111218"/>
<path d="M15.2344 17.0195H13.418C12.9163 17.0195 12.5098 17.4261 12.5098 17.9277C12.5098 18.4294 12.9163 18.8359 13.418 18.8359H15.2344C15.736 18.8359 16.1426 18.4294 16.1426 17.9277C16.1426 17.4261 15.736 17.0195 15.2344 17.0195Z" fill="#111218"/>
<path d="M15.2344 20.6523H13.418C12.9163 20.6523 12.5098 21.0589 12.5098 21.5605C12.5098 22.0622 12.9163 22.4687 13.418 22.4687H15.2344C15.736 22.4687 16.1426 22.0622 16.1426 21.5605C16.1426 21.0589 15.736 20.6523 15.2344 20.6523Z" fill="#111218"/>
<path d="M15.2344 24.2852H13.418C12.9163 24.2852 12.5098 24.6917 12.5098 25.1934C12.5098 25.695 12.9163 26.1016 13.418 26.1016H15.2344C15.736 26.1016 16.1426 25.695 16.1426 25.1934C16.1426 24.6917 15.736 24.2852 15.2344 24.2852Z" fill="#111218"/>
<path d="M20.7441 18.8359H22.5605C23.0622 18.8359 23.4688 18.4294 23.4688 17.9277C23.4688 17.4261 23.0622 17.0195 22.5605 17.0195H20.7441C20.2425 17.0195 19.8359 17.4261 19.8359 17.9277C19.8359 18.4294 20.2425 18.8359 20.7441 18.8359Z" fill="#111218"/>
<path d="M20.7441 22.4687H22.5605C23.0622 22.4687 23.4688 22.0622 23.4688 21.5605C23.4688 21.0589 23.0622 20.6523 22.5605 20.6523H20.7441C20.2425 20.6523 19.8359 21.0589 19.8359 21.5605C19.8359 22.0622 20.2425 22.4687 20.7441 22.4687Z" fill="#111218"/>
<path d="M15.2344 27.918H13.418C12.9163 27.918 12.5098 28.3245 12.5098 28.8262C12.5098 29.3278 12.9163 29.7344 13.418 29.7344H15.2344C15.736 29.7344 16.1426 29.3278 16.1426 28.8262C16.1426 28.3245 15.736 27.918 15.2344 27.918Z" fill="#111218"/>
<path d="M28.0098 18.8359H29.8262C30.3278 18.8359 30.7344 18.4294 30.7344 17.9277C30.7344 17.4261 30.3278 17.0195 29.8262 17.0195H28.0098C27.5081 17.0195 27.1016 17.4261 27.1016 17.9277C27.1016 18.4294 27.5081 18.8359 28.0098 18.8359Z" fill="#111218"/>
</svg>
