<svg width="33" height="32" viewBox="0 0 33 32" fill="none" xmlns="http://www.w3.org/2000/svg">
<path d="M31.6406 13.9185C31.6397 13.9177 31.6389 13.9167 31.6382 13.916L18.5834 0.863037C18.027 0.306396 17.2871 0 16.5002 0C15.7132 0 14.9734 0.306396 14.4167 0.863037L1.36877 13.9094C1.36438 13.9138 1.35974 13.9185 1.35559 13.9229C0.212894 15.072 0.214848 16.9365 1.3612 18.0828C1.88494 18.6067 2.57641 18.9099 3.31599 18.9419C3.34627 18.9448 3.37654 18.9463 3.40707 18.9463H3.92714V28.5522C3.92714 30.4534 5.47417 32 7.37548 32H12.4829C13.0008 32 13.4205 31.5801 13.4205 31.0625V23.5312C13.4205 22.6638 14.1264 21.9583 14.9939 21.9583H18.0064C18.874 21.9583 19.5796 22.6638 19.5796 23.5312V31.0625C19.5796 31.5801 19.9993 32 20.5172 32H25.6246C27.5262 32 29.073 30.4534 29.073 28.5522V18.9463H29.5555C30.3422 18.9463 31.082 18.6399 31.6389 18.083C32.7865 16.9351 32.787 15.0671 31.6406 13.9185V13.9185ZM30.3129 16.7573C30.1104 16.9597 29.8414 17.0713 29.5555 17.0713H28.1354C27.6175 17.0713 27.1978 17.491 27.1978 18.0088V28.5522C27.1978 29.4194 26.4922 30.125 25.6246 30.125H21.4548V23.5312C21.4548 21.6301 19.908 20.0833 18.0064 20.0833H14.9939C13.0924 20.0833 11.5453 21.6301 11.5453 23.5312V30.125H7.37548C6.50821 30.125 5.80233 29.4194 5.80233 28.5522V18.0088C5.80233 17.491 5.38261 17.0713 4.86473 17.0713H3.46908C3.45443 17.0703 3.44003 17.0696 3.42513 17.0693C3.14581 17.0645 2.88382 16.9536 2.68751 16.7571C2.26999 16.3396 2.26999 15.6602 2.68751 15.2424C2.68775 15.2424 2.68775 15.2422 2.688 15.2419L2.68873 15.2412L15.743 2.18872C15.9452 1.98633 16.214 1.875 16.5002 1.875C16.7861 1.875 17.0549 1.98633 17.2573 2.18872L30.3087 15.2385C30.3107 15.2405 30.3129 15.2424 30.3148 15.2444C30.7301 15.6626 30.7294 16.3406 30.3129 16.7573V16.7573Z" fill="white"/>
</svg>
