<svg width="23" height="23" viewBox="0 0 23 23" fill="none" xmlns="http://www.w3.org/2000/svg">
<path d="M11.0154 5.43909C7.89392 5.43909 5.37613 7.95688 5.37613 11.0784C5.37613 14.1998 7.89392 16.7176 11.0154 16.7176C14.1369 16.7176 16.6547 14.1998 16.6547 11.0784C16.6547 7.95688 14.1369 5.43909 11.0154 5.43909ZM11.0154 14.7446C8.99822 14.7446 7.34913 13.1004 7.34913 11.0784C7.34913 9.05627 8.99331 7.4121 11.0154 7.4121C13.0375 7.4121 14.6817 9.05627 14.6817 11.0784C14.6817 13.1004 13.0326 14.7446 11.0154 14.7446ZM18.2007 5.20842C18.2007 5.93971 17.6117 6.52376 16.8853 6.52376C16.154 6.52376 15.57 5.9348 15.57 5.20842C15.57 4.48204 16.159 3.89308 16.8853 3.89308C17.6117 3.89308 18.2007 4.48204 18.2007 5.20842ZM21.9356 6.54339C21.8522 4.78142 21.4497 3.22069 20.159 1.9348C18.8731 0.648909 17.3123 0.246455 15.5504 0.158111C13.7344 0.0550437 8.29147 0.0550437 6.47552 0.158111C4.71846 0.241547 3.15772 0.644001 1.86693 1.92989C0.57613 3.21578 0.178584 4.77652 0.0902401 6.53848C-0.0128274 8.35443 -0.0128274 13.7974 0.0902401 15.6133C0.173676 17.3753 0.57613 18.936 1.86693 20.2219C3.15772 21.5078 4.71355 21.9103 6.47552 21.9986C8.29147 22.1017 13.7344 22.1017 15.5504 21.9986C17.3123 21.9152 18.8731 21.5127 20.159 20.2219C21.4448 18.936 21.8473 17.3753 21.9356 15.6133C22.0387 13.7974 22.0387 8.35934 21.9356 6.54339ZM19.5896 17.5618C19.2068 18.5238 18.4657 19.2649 17.4988 19.6526C16.051 20.2268 12.6154 20.0943 11.0154 20.0943C9.41539 20.0943 5.9749 20.2219 4.53196 19.6526C3.56999 19.2698 2.82889 18.5287 2.44116 17.5618C1.86693 16.1139 1.99944 12.6784 1.99944 11.0784C1.99944 9.47836 1.87184 6.03787 2.44116 4.59492C2.82398 3.63296 3.56509 2.89185 4.53196 2.50412C5.97981 1.92989 9.41539 2.06241 11.0154 2.06241C12.6154 2.06241 16.0559 1.9348 17.4988 2.50412C18.4608 2.88695 19.2019 3.62805 19.5896 4.59492C20.1639 6.04277 20.0313 9.47836 20.0313 11.0784C20.0313 12.6784 20.1639 16.1188 19.5896 17.5618Z" fill="black"/>
</svg>
