<svg width="23" height="23" viewBox="0 0 23 23" fill="none" xmlns="http://www.w3.org/2000/svg">
<path d="M19.2276 3.2728C17.17 1.2103 14.4298 0.0759277 11.5178 0.0759277C5.50708 0.0759277 0.616009 4.967 0.616009 10.9777C0.616009 12.8978 1.1169 14.7737 2.06958 16.4286L0.522705 22.0759L6.30262 20.5585C7.89369 21.4277 9.6861 21.8844 11.5129 21.8844H11.5178C17.5236 21.8844 22.5227 16.9933 22.5227 10.9826C22.5227 8.07057 21.2852 5.3353 19.2276 3.2728ZM11.5178 20.0478C9.88744 20.0478 8.29145 19.6107 6.90172 18.7857L6.5727 18.5893L3.14503 19.488L4.05842 16.1438L3.84235 15.8C2.93387 14.3563 2.45753 12.6916 2.45753 10.9777C2.45753 5.98352 6.5236 1.91745 11.5227 1.91745C13.9437 1.91745 16.2173 2.8603 17.9263 4.57414C19.6352 6.28798 20.6861 8.56164 20.6812 10.9826C20.6812 15.9817 16.512 20.0478 11.5178 20.0478ZM16.4874 13.2612C16.2173 13.1237 14.8767 12.4657 14.6263 12.3773C14.3758 12.284 14.1941 12.2398 14.0124 12.5148C13.8307 12.7898 13.3102 13.3987 13.1482 13.5853C12.991 13.767 12.829 13.7916 12.5589 13.6541C10.958 12.8536 9.90708 12.225 8.85128 10.413C8.57137 9.93173 9.13119 9.96611 9.65172 8.92503C9.74012 8.74334 9.69592 8.58619 9.62717 8.4487C9.55842 8.3112 9.01333 6.97057 8.78744 6.42548C8.56645 5.89512 8.34056 5.96878 8.1736 5.95896C8.01646 5.94914 7.83476 5.94914 7.65306 5.94914C7.47137 5.94914 7.17672 6.01789 6.92628 6.28798C6.67583 6.56298 5.9736 7.22102 5.9736 8.56164C5.9736 9.90227 6.95083 11.1987 7.08342 11.3804C7.22092 11.5621 9.00351 14.3121 11.7388 15.4956C13.4673 16.242 14.145 16.3058 15.0093 16.1782C15.5348 16.0996 16.62 15.5201 16.8459 14.8817C17.0718 14.2433 17.0718 13.6982 17.0031 13.5853C16.9392 13.4625 16.7575 13.3938 16.4874 13.2612Z" fill="black"/>
</svg>
