<svg width="145" height="137" viewBox="0 0 145 137" fill="none" xmlns="http://www.w3.org/2000/svg">
<g clip-path="url(#clip0)">
<path d="M52.3983 26.1201C52.4015 30.3306 51.3824 34.4792 49.4281 38.2118C47.4738 41.9443 44.6423 45.1497 41.1755 47.5543C40.199 48.2357 39.1764 48.8488 38.115 49.3895C37.7628 49.5696 37.4081 49.7408 37.0469 49.9029C36.7215 50.0515 36.3941 50.1911 36.062 50.324C31.944 51.9863 27.4706 52.5813 23.0595 52.0533C22.2961 51.9632 21.5425 51.8394 20.7986 51.6818C20.7671 51.675 20.7331 51.6682 20.7016 51.6615C19.1438 51.333 17.6202 50.8604 16.1505 50.2496C11.769 48.4364 7.96356 45.4712 5.14009 41.6705C2.31662 37.8699 0.581093 33.3763 0.118681 28.6692C-0.343731 23.9621 0.484324 19.2182 2.51449 14.9436C4.54466 10.669 7.70078 7.02407 11.6461 4.39775C15.5914 1.77142 20.1779 0.262225 24.9162 0.0311914C29.6544 -0.199843 34.3667 0.855952 38.5503 3.08592C42.7338 5.3159 46.2316 8.63638 48.6705 12.6931C51.1093 16.7498 52.3978 21.3905 52.3983 26.1201Z" fill="#F1F1F1"/>
<path d="M31.0236 21.245C31.001 21.218 30.9762 21.1933 30.9514 21.1685C29.5516 19.7594 27.6507 18.9576 25.6615 18.9374C23.6724 18.9172 21.7555 19.68 20.3271 21.0604C20.3113 21.0739 20.2978 21.0874 20.2842 21.1009C20.2661 21.1167 20.2504 21.1324 20.2345 21.1482C19.5311 21.8478 18.973 22.6789 18.5925 23.5939C18.2119 24.5089 18.0162 25.4898 18.0166 26.4803V31.2089C18.017 31.4776 18.1242 31.7351 18.3147 31.925C18.5053 32.1149 18.7635 32.2218 19.033 32.2222H32.1326C32.4021 32.2218 32.6604 32.1149 32.8509 31.925C33.0414 31.7351 33.1486 31.4776 33.149 31.2089V26.4803C33.1509 24.526 32.3884 22.6479 31.0236 21.245Z" fill="#2F2E41"/>
<path d="M25.8864 32.1754C28.9501 32.1754 31.4337 29.6993 31.4337 26.6449C31.4337 23.5905 28.9501 21.1144 25.8864 21.1144C22.8227 21.1144 20.3391 23.5905 20.3391 26.6449C20.3391 29.6993 22.8227 32.1754 25.8864 32.1754Z" fill="#FFB7B7"/>
<path d="M31.7171 26.1741L31.0622 21.6121C31.042 21.4721 30.9703 21.3445 30.8611 21.2541C30.8243 21.2247 30.7841 21.1997 30.7414 21.1798C27.3874 19.6148 23.9861 19.6148 20.6321 21.1753C20.5873 21.1959 20.5455 21.2224 20.5078 21.2541C20.4943 21.2653 20.4808 21.2788 20.4672 21.2924C20.3775 21.3847 20.3218 21.5045 20.3091 21.6324L19.8709 26.2011C19.8635 26.2793 19.8726 26.3581 19.8975 26.4325C19.9224 26.5069 19.9626 26.5754 20.0155 26.6335C20.1008 26.7271 20.2155 26.789 20.3407 26.8091C20.3711 26.8156 20.4022 26.8186 20.4333 26.8181H21.5445C21.652 26.8178 21.7571 26.7871 21.8478 26.7297C21.9385 26.6724 22.0111 26.5906 22.0572 26.4939L22.5383 25.4671C22.5691 25.4005 22.6208 25.3458 22.6856 25.3113C22.7505 25.2767 22.8248 25.2642 22.8974 25.2757C22.9701 25.2872 23.0369 25.322 23.0879 25.3748C23.1388 25.4276 23.171 25.4956 23.1797 25.5684L23.2745 26.325C23.2921 26.4609 23.3586 26.5858 23.4617 26.6765C23.5647 26.7672 23.6973 26.8175 23.8348 26.8181H31.1592C31.2551 26.8186 31.3494 26.7937 31.4325 26.7461C31.4904 26.7147 31.5423 26.6735 31.5861 26.6245C31.6391 26.5632 31.6782 26.4912 31.7008 26.4135C31.7234 26.3358 31.729 26.2542 31.7171 26.1741Z" fill="#2F2E41"/>
<path d="M39.604 42.3078L41.176 47.5543C40.1995 48.2357 39.1769 48.8489 38.1156 49.3895C37.7633 49.5696 37.4087 49.7408 37.0474 49.9029L35.4189 42.9428L34.7865 40.2429L38.8519 39.7926L39.604 42.3078Z" fill="#FFB7B7"/>
<path d="M20.8963 41.4364L20.7608 48.5249L20.7021 51.6615C19.1443 51.3331 17.6207 50.8604 16.151 50.2497L16.6908 43.535L16.8264 41.8417L20.8963 41.4364Z" fill="#FFB7B7"/>
<path d="M39.604 42.3078L35.5205 42.918L35.5703 43.5868L36.0626 50.324C31.9445 51.9863 27.4711 52.5813 23.06 52.0533C22.2967 51.9632 21.543 51.8394 20.7991 51.6818C21.1334 50.2812 21.4226 49.0202 21.0657 48.7725C20.9582 48.6975 20.8562 48.6147 20.7608 48.5248C19.0962 46.9419 19.7106 43.3684 19.7106 43.3684L16.6908 43.535L15.6451 43.5935C15.6451 43.5935 16.0969 36.388 18.1296 36.388H20.614L32.5844 35.2621C32.5844 35.2621 35.9723 34.1363 36.8757 35.7125C37.35 36.5389 38.1946 38.2907 38.8926 39.7723C39.525 41.1189 40.0377 42.2425 40.0377 42.2425L39.604 42.3078Z" fill="#2F2E41"/>
<path d="M144.998 26.4078C144.956 30.5323 143.933 34.588 142.014 38.242C140.095 41.896 137.334 45.0442 133.958 47.4283C133.899 47.4688 133.838 47.5116 133.777 47.5544C133.714 47.5994 133.649 47.6444 133.583 47.6872C133.204 47.9484 132.817 48.1983 132.422 48.437C131.867 48.7748 131.298 49.0923 130.717 49.3895C130.699 49.3985 130.678 49.4075 130.66 49.4165C130.326 49.5877 129.989 49.7498 129.649 49.9029C129.637 49.9074 129.628 49.9119 129.617 49.9164C129.538 49.9524 129.454 49.9907 129.373 50.0245C128.743 50.3037 128.099 50.5582 127.444 50.7833C126.886 50.9792 126.32 51.1549 125.746 51.3103C124.571 51.6333 123.375 51.8726 122.166 52.0263C121.135 52.1585 120.097 52.2291 119.058 52.238C118.972 52.2402 118.886 52.2402 118.801 52.2402C118.234 52.2402 117.669 52.2222 117.111 52.1862C116.623 52.1547 116.14 52.1119 115.661 52.0533C114.923 51.9655 114.193 51.8484 113.475 51.6953C113.443 51.6908 113.412 51.684 113.38 51.6773C113.355 51.6728 113.328 51.666 113.303 51.6615C112.581 51.5107 111.869 51.326 111.171 51.1144C110.514 50.9162 109.869 50.6925 109.236 50.4433C109.073 50.3803 108.913 50.3172 108.752 50.2497C108.353 50.0831 107.957 49.9097 107.569 49.7228C107.456 49.671 107.345 49.617 107.235 49.5629C106.86 49.3805 106.489 49.1891 106.128 48.9865C105.692 48.7455 105.264 48.4926 104.843 48.2276C104.312 47.8944 103.792 47.5431 103.289 47.1716C98.8139 43.8938 95.4994 39.2833 93.8233 34.0055C92.1473 28.7277 92.1965 23.0555 93.9638 17.8074C95.7312 12.5593 99.1252 8.00665 103.656 4.80649C108.187 1.60634 113.621 -0.0758657 119.173 0.00262714C133.54 0.201579 145.153 12.0845 144.998 26.4078Z" fill="#F1F1F1"/>
<path d="M113.303 51.6614C112.581 51.5106 111.869 51.3259 111.171 51.1143L113.568 36.3001L116.05 36.2236L120.551 36.0817L122.859 36.0096C122.859 36.0096 124.497 43.1837 125.746 51.3102C124.571 51.6332 123.375 51.8725 122.166 52.0262C121.135 52.1584 120.097 52.2291 119.058 52.2379C118.972 52.2401 118.886 52.2401 118.801 52.2401C118.234 52.2401 117.669 52.2221 117.111 52.1861C116.623 52.1546 116.14 52.1118 115.661 52.0532C114.923 51.9654 114.193 51.8483 113.475 51.6952C113.443 51.6907 113.412 51.6839 113.38 51.6772C113.355 51.6727 113.328 51.6659 113.303 51.6614Z" fill="#CBCBCB"/>
<path d="M113.475 51.6953C113.443 51.6908 113.412 51.684 113.38 51.6773C113.355 51.6727 113.328 51.666 113.303 51.6615C112.58 51.5106 111.869 51.326 111.171 51.1143C110.514 50.9162 109.869 50.6925 109.236 50.4433C109.073 50.3803 108.913 50.3172 108.752 50.2497C108.353 50.083 107.957 49.9096 107.569 49.7227C107.456 49.671 107.345 49.6169 107.234 49.5629L107.036 38.4708L113.134 35.8656C113.134 35.8656 113.154 36.0277 116.05 36.2236C116.601 38.016 113.475 51.6953 113.475 51.6953Z" fill="#2F2E41"/>
<path d="M131.702 37.9461L130.552 43.9695L130.66 49.4165C130.326 49.5876 129.989 49.7497 129.649 49.9028C129.637 49.9073 129.628 49.9118 129.617 49.9163C129.538 49.9524 129.454 49.9907 129.373 50.0244C128.743 50.3036 128.099 50.5581 127.444 50.7833C126.886 50.9792 126.32 51.1548 125.746 51.3102C124.571 51.6332 123.375 51.8725 122.166 52.0262C121.135 52.1584 120.097 52.2291 119.058 52.2379L118.938 42.5847C118.686 39.4728 119.523 37.4148 120.551 36.0817C126.028 35.3522 125.906 35.2869 125.906 35.2869L131.713 37.8921L131.702 37.9461Z" fill="#2F2E41"/>
<path d="M109.649 39.34L109.236 50.4433C109.073 50.3802 108.913 50.3172 108.752 50.2496C108.352 50.083 107.957 49.9096 107.569 49.7227C107.456 49.6709 107.345 49.6169 107.234 49.5629C106.859 49.3805 106.489 49.1891 106.128 48.9864C105.692 48.7455 105.263 48.4925 104.843 48.2276L107.036 38.4708L109.649 39.34Z" fill="#2F2E41"/>
<path d="M133.958 47.4282C133.899 47.4687 133.838 47.5115 133.777 47.5543C133.714 47.5993 133.649 47.6443 133.583 47.6871C133.204 47.9483 132.817 48.1983 132.422 48.437C131.866 48.7747 131.298 49.0922 130.717 49.3894C130.699 49.3984 130.678 49.4075 130.66 49.4165C130.316 49.5928 129.968 49.7595 129.618 49.9167L129.617 49.9163L129.204 38.7748L131.702 37.9461L131.817 37.9078L133.958 47.4282Z" fill="#2F2E41"/>
<path d="M125.034 27.6354C126.038 24.2221 124.083 20.6458 120.669 19.6477C117.254 18.6495 113.672 20.6074 112.668 24.0208C111.664 27.4341 113.619 31.0103 117.034 32.0085C120.448 33.0066 124.031 31.0487 125.034 27.6354Z" fill="#9F616A"/>
<path d="M112.362 27.4429V24.9364C112.362 24.9364 110.335 22.5558 112.565 21.9562C112.565 21.9562 113.173 15.9594 118.444 18.7579C118.444 18.7579 125.743 17.5585 124.932 21.7563C124.932 21.7563 126.757 20.6604 126.149 23.4589L124.972 27.9667C124.972 27.9667 125.54 24.989 123.716 24.5892L122.702 23.9895C122.702 23.9895 119.864 26.788 115.606 23.3898C115.606 23.3898 113.781 22.9556 113.984 24.7547C114.187 26.5537 112.362 27.4429 112.362 27.4429Z" fill="#2F2E41"/>
<path d="M98.6994 104.931C98.7026 109.141 97.6835 113.29 95.7292 117.022C93.7749 120.755 90.9434 123.96 87.4766 126.365C87.4134 126.41 87.3479 126.455 87.2824 126.498C86.9029 126.759 86.5159 127.009 86.1215 127.248C85.5659 127.585 84.9974 127.903 84.4162 128.2C84.0639 128.38 83.7093 128.551 83.348 128.714C83.2576 128.754 83.165 128.797 83.0724 128.835C82.4422 129.114 81.7985 129.369 81.1436 129.594C79.4328 130.192 77.6636 130.609 75.8653 130.837C74.7493 130.98 73.6252 131.051 72.5 131.051C71.9332 131.051 71.3685 131.033 70.8106 130.997C70.3227 130.965 69.8395 130.923 69.3606 130.864C68.5904 130.772 67.8293 130.648 67.0795 130.488C67.0546 130.483 67.0275 130.477 67.0027 130.472C65.4449 130.144 63.9213 129.671 62.4516 129.06C62.0519 128.894 61.6567 128.72 61.2682 128.533C60.7781 128.304 60.2978 128.058 59.8272 127.797C55.7833 125.57 52.402 122.316 50.0262 118.365C47.6505 114.415 46.3647 109.908 46.2994 105.302C46.234 100.697 47.3913 96.1556 49.654 92.1396C51.9167 88.1237 55.2043 84.7756 59.1834 82.4349C63.1625 80.0942 67.6917 78.8441 72.3117 78.8113C76.9318 78.7786 81.4783 79.9643 85.4905 82.2484C89.5026 84.5324 92.8376 87.8335 95.1573 91.817C97.4771 95.8004 98.6991 100.325 98.6994 104.931Z" fill="#F1F1F1"/>
<path d="M71.7804 111.368C75.0115 111.368 77.6308 108.757 77.6308 105.535C77.6308 102.314 75.0115 99.7028 71.7804 99.7028C68.5493 99.7028 65.9301 102.314 65.9301 105.535C65.9301 108.757 68.5493 111.368 71.7804 111.368Z" fill="#FFB8B8"/>
<path d="M69.3606 130.864C68.5904 130.772 67.8293 130.648 67.0795 130.488L67.7909 114.528L67.8926 114.422L69.3493 112.888H73.9817L75.6914 114.539L75.8359 114.681L79.4925 118.173L81.1436 129.594C79.4328 130.192 77.6636 130.609 75.8653 130.837C74.7493 130.98 73.6252 131.051 72.5 131.051C71.9332 131.051 71.3685 131.033 70.8106 130.997C70.3227 130.965 69.8395 130.922 69.3606 130.864Z" fill="#CBCBCB"/>
<path d="M61.2682 128.533C60.7781 128.304 60.2978 128.058 59.8272 127.797C59.7798 123.474 59.7482 120.603 59.7482 120.603L60.2992 120.267C60.3058 120.264 60.3126 120.261 60.3195 120.258L66.5735 116.471L67.8857 114.345L67.8926 114.422L68.2788 118.903C69.4418 122.861 70.2884 126.905 70.8107 130.997C70.3228 130.965 69.8395 130.922 69.3607 130.864C68.5905 130.772 67.8293 130.648 67.0795 130.488C67.0547 130.483 67.0275 130.477 67.0027 130.472C65.445 130.144 63.9213 129.671 62.4516 129.06C62.0519 128.894 61.6567 128.72 61.2682 128.533Z" fill="#2F2E41"/>
<path d="M81.1436 129.594C79.4329 130.192 77.6636 130.609 75.8653 130.837C75.6161 129.384 75.5244 127.908 75.592 126.435C76.0799 118.66 74.9551 114.345 75.443 114.345L75.6914 114.539L78.7608 116.957L82.8013 118.434H82.8037L85.584 119.45L86.0741 119.63V119.862C86.0763 120.664 86.0808 123.469 86.1215 127.248C85.5659 127.585 84.9975 127.903 84.4162 128.2C84.064 128.38 83.7093 128.551 83.348 128.714C83.2576 128.754 83.1651 128.797 83.0724 128.835C82.4423 129.114 81.7986 129.369 81.1436 129.594Z" fill="#2F2E41"/>
<path d="M66.2455 107.36C66.2455 107.36 66.7426 106.49 66.6271 103.583C66.5115 100.675 70.9521 102.32 74.6627 102.042C78.3733 101.765 77.5878 106.896 77.5878 106.896C77.5878 106.896 77.8555 106.591 78.4287 104.115C79.0018 101.638 77.7005 99.1703 77.7005 99.1703C77.3172 96.568 75.2517 97.402 75.2517 97.402C76.2464 97.7881 76.0554 98.6136 76.0554 98.6136C75.2134 97.1418 73.1479 97.9759 73.1479 97.9759C70.3931 96.2524 67.6012 98.522 67.6012 98.522C64.2732 99.275 66.2249 101.914 66.2249 101.914C62.8781 103.6 66.2455 107.36 66.2455 107.36Z" fill="#2F2E41"/>
<path d="M56.9882 125.982C57.0741 124.003 57.1124 122.726 57.0672 122.548C56.8346 121.621 60.0102 120.378 60.2993 120.267C60.3058 120.264 60.3126 120.261 60.3195 120.258L60.9656 120.603L61.2682 128.533C60.7781 128.304 60.2978 128.058 59.8272 127.797C58.8425 127.254 57.8942 126.648 56.9882 125.982Z" fill="#2F2E41"/>
<path d="M86.1215 127.248C85.5659 127.585 84.9974 127.903 84.4162 128.2C84.0639 128.38 83.7093 128.551 83.348 128.714C83.2576 128.754 83.165 128.797 83.0724 128.835L82.056 118.831L82.65 118.398C82.65 118.398 82.7043 118.412 82.8013 118.434H82.8036C83.2802 118.551 84.7437 118.939 85.5839 119.45C85.7715 119.556 85.9376 119.696 86.074 119.862C86.1571 119.961 86.1983 120.089 86.1892 120.218C86.1622 120.479 86.6139 122.956 87.2824 126.498C86.9029 126.759 86.5159 127.009 86.1215 127.248Z" fill="#2F2E41"/>
<path d="M35.689 110.252H25.9735V66.8287H26.4252V109.802H35.689V110.252Z" fill="#F1F1F1"/>
<path d="M119.028 110.252H109.313V109.802H118.577V66.4261H119.028V110.252Z" fill="#F1F1F1"/>
<path d="M118.801 57.2745C122.098 57.2745 124.771 54.6094 124.771 51.3218C124.771 48.0342 122.098 45.369 118.801 45.369C115.503 45.369 112.83 48.0342 112.83 51.3218C112.83 54.6094 115.503 57.2745 118.801 57.2745Z" fill="#0E53AE"/>
<path d="M118.232 53.8346L116.445 51.5436L117.484 50.7377L118.33 51.8224L121.189 48.8141L122.145 49.7168L118.232 53.8346Z" fill="white"/>
<path d="M26.1993 57.739C29.4969 57.739 32.1702 55.0739 32.1702 51.7862C32.1702 48.4986 29.4969 45.8335 26.1993 45.8335C22.9017 45.8335 20.2285 48.4986 20.2285 51.7862C20.2285 55.0739 22.9017 57.739 26.1993 57.739Z" fill="#0E53AE"/>
<path d="M25.6305 54.2991L23.8433 52.0082L24.8827 51.2023L25.7287 52.287L28.5874 49.2787L29.5432 50.1814L25.6305 54.2991Z" fill="white"/>
<path d="M72.5 137C75.7976 137 78.4708 134.335 78.4708 131.047C78.4708 127.76 75.7976 125.094 72.5 125.094C69.2024 125.094 66.5292 127.76 66.5292 131.047C66.5292 134.335 69.2024 137 72.5 137Z" fill="#0E53AE"/>
<path d="M71.9311 133.56L70.1439 131.269L71.1833 130.463L72.0294 131.548L74.888 128.54L75.8439 129.442L71.9311 133.56Z" fill="white"/>
</g>
<defs>
<clipPath id="clip0">
<rect width="145" height="137" fill="white"/>
</clipPath>
</defs>
</svg>
