<svg width="171" height="143" viewBox="0 0 171 143" fill="none" xmlns="http://www.w3.org/2000/svg">
<g clip-path="url(#clip0)">
<path d="M25.709 136.282L29.007 137.194L34.1333 125.044L29.2658 123.698L25.709 136.282Z" fill="#FFB8B8"/>
<path d="M34.5116 141.983L24.1459 139.116L25.2656 135.155L32.0272 137.025C32.9831 137.289 33.7936 137.918 34.2806 138.774C34.7675 139.629 34.8909 140.641 34.6237 141.586L34.5116 141.983Z" fill="#2F2E41"/>
<path d="M65.0511 138.837L68.4759 138.837L70.1044 125.77L65.05 125.77L65.0511 138.837Z" fill="#FFB8B8"/>
<path d="M75.0808 141.982L64.3177 141.983L64.3173 137.869L71.3382 137.869C71.8296 137.869 72.3162 137.964 72.7703 138.15C73.2243 138.336 73.6369 138.609 73.9844 138.953C74.332 139.296 74.6077 139.704 74.7958 140.154C74.9839 140.603 75.0807 141.084 75.0808 141.57L75.0808 141.982Z" fill="#2F2E41"/>
<path d="M39.6022 84.589L31.7197 103.691L63.9067 110.843L64.3173 100.156L49.7018 84.7573L39.6022 84.589Z" fill="#B3B3B3"/>
<path d="M57.0656 54.8325C60.6311 52.9044 61.9415 48.4823 59.9924 44.9553C58.0434 41.4284 53.5729 40.1321 50.0074 42.0602C46.4419 43.9882 45.1316 48.4103 47.0806 51.9373C49.0297 55.4643 53.5002 56.7605 57.0656 54.8325Z" fill="#FFB8B8"/>
<path d="M58.7938 83.532L44.2246 77.6325L42.9275 69.1719C42.5455 66.6988 43.142 64.1753 44.5929 62.1262C46.0439 60.0772 48.2376 58.6603 50.7177 58.1703L52.6447 57.7875C54.2278 57.4739 55.8643 57.5474 57.4122 58.0016C58.96 58.4557 60.3724 59.2767 61.5266 60.3934C62.6572 61.462 63.5027 62.791 63.9875 64.2616C64.4724 65.7322 64.5815 67.2987 64.3052 68.8212C64.0875 70.1258 63.5526 71.3585 62.7466 72.4133C58.1697 78.3337 58.7573 83.2553 58.7638 83.3044L58.7938 83.532Z" fill="#0E53AE"/>
<path d="M64.7261 105.596L57.4247 94.1099L59.7244 73.2153L56.5476 57.5884L56.7165 57.5925C58.5642 57.6377 60.3236 58.3841 61.6303 59.6772C62.9369 60.9703 63.6907 62.711 63.7356 64.5388L66.826 79.8518L64.7261 105.596Z" fill="#2F2E41"/>
<path d="M64.8928 136.367C64.5851 136.367 64.2869 136.261 64.0489 136.068C63.8109 135.875 63.6477 135.607 63.587 135.308L60.3881 119.573C59.8039 116.691 58.7036 113.934 57.1393 111.434L48.1133 96.9913C48.0684 96.9195 48.0043 96.8613 47.9281 96.8231C47.8519 96.785 47.7665 96.7683 47.6814 96.7751C47.5963 96.7818 47.5147 96.8116 47.4456 96.8613C47.3765 96.9109 47.3225 96.9784 47.2897 97.0564L32.4501 132.32C32.3309 132.602 32.1165 132.834 31.8436 132.977C31.5706 133.12 31.256 133.165 30.9532 133.105L26.9889 132.305C26.6493 132.238 26.3497 132.043 26.1539 131.76C25.9581 131.477 25.8817 131.13 25.941 130.793L29.1749 111.94C29.8346 108.097 30.9586 104.347 32.5229 100.77L43.4751 75.7314L59.6377 80.9822L60.7042 92.1775L68.1722 110.065C68.6883 111.3 68.9968 112.611 69.0854 113.945L70.4651 134.618C70.4866 134.963 70.3708 135.303 70.1426 135.565C69.9144 135.826 69.5918 135.989 69.2436 136.019L65.0026 136.362C64.9658 136.365 64.9291 136.367 64.8928 136.367Z" fill="#2F2E41"/>
<path d="M35.4082 110.719L30.2842 105.908L39.9679 68.97C40.5823 66.6476 41.7342 64.4983 43.3326 62.6919C44.931 60.8856 46.9322 59.4716 49.178 58.5618L49.3681 58.4852L48.8507 80.9665L35.4082 110.719Z" fill="#2F2E41"/>
<path d="M51.822 55.6984C50.0043 54.142 49.4515 51.2387 50.5653 49.0983C51.679 46.9579 54.3422 45.8057 56.6194 46.4789C58.7641 47.113 61.2023 44.9979 60.941 42.7299C60.6797 40.4619 57.8277 38.9845 55.8858 40.1113C54.4152 39.5274 52.8053 39.3763 51.2499 39.6759C49.6945 39.9756 48.2597 40.7134 47.118 41.8005C44.8365 44.0114 43.971 47.6256 44.9953 50.6648C46.0195 53.704 48.8784 56.0049 51.822 55.6984Z" fill="#2F2E41"/>
<path d="M45.3857 114.85C45.2959 114.884 45.2024 114.908 45.1072 114.921L33.4088 116.536C33.1258 116.576 32.8374 116.52 32.5911 116.376C32.3448 116.232 32.1553 116.01 32.0536 115.746L21.9841 89.8271C21.9189 89.6593 21.891 89.4796 21.9024 89.3002C21.9137 89.1208 21.9641 88.9459 22.0499 88.7874C22.1358 88.629 22.2552 88.4907 22.4 88.3821C22.5447 88.2734 22.7115 88.1969 22.8889 88.1577L22.8889 88.1577L33.8901 85.7292C33.975 85.7104 34.0571 85.6807 34.1342 85.6409L44.8344 80.107C44.9171 80.0641 45.0043 80.0305 45.0945 80.0068L56.8701 76.9015C57.1717 76.8214 57.4926 76.8547 57.7707 76.9951C58.0489 77.1354 58.2646 77.3728 58.3761 77.6613L67.1561 100.261C67.2332 100.458 67.2584 100.671 67.2294 100.88C67.2003 101.089 67.118 101.287 66.99 101.456L63.9535 105.49C63.8107 105.68 63.6163 105.826 63.3929 105.91L56.7569 108.433C56.7094 108.451 56.6633 108.473 56.6191 108.498L45.5612 114.767C45.5049 114.799 45.4462 114.827 45.3857 114.85Z" fill="white"/>
<path d="M50.8285 80.3566L49.3331 80.7511L45.3704 81.7966L45.3634 81.7982L39.9382 84.6042L37.9248 85.6458L37.9239 85.6461L34.9 87.2099L34.8171 87.2284L31.6758 87.9213L30.1577 88.2571L23.9656 89.6239L33.6864 114.645L40.0673 113.764L41.6318 113.548L44.9665 113.087L45.0052 113.082L55.7208 107.007L62.2405 104.528L65.2172 100.574L56.7554 78.7938L50.8285 80.3566Z" fill="#E6E6E6"/>
<path d="M58.1495 82.3822L25.9132 94.637L26.4653 96.0579L58.7016 83.8031L58.1495 82.3822Z" fill="white"/>
<path d="M59.9898 87.1186L27.7534 99.3734L28.3055 100.794L60.5418 88.5396L59.9898 87.1186Z" fill="white"/>
<path d="M63.7067 96.6864L31.4703 108.941L32.0224 110.362L64.2587 98.1073L63.7067 96.6864Z" fill="white"/>
<path d="M50.8284 80.3564L60.4793 105.198L59.043 105.744L49.333 80.7511L50.8284 80.3564Z" fill="white"/>
<path d="M39.9382 84.6042L37.9565 90.0586L37.2694 91.9506L35.6664 96.3653L35.323 97.3091L34.9793 98.2573L34.5266 99.5024L31.2779 108.446L30.4333 106.272L33.0822 98.9787L33.6815 97.3275L33.7694 97.0864L34.4781 95.1341L35.3723 92.672L36.0595 90.7797L37.9239 85.6461L37.9247 85.6459L39.9382 84.6042Z" fill="white"/>
<path opacity="0.1" d="M55.9544 106.918L55.7206 107.007L45.0051 113.082L44.9663 113.087L34.8169 87.2282L34.8999 87.2098L37.9238 85.6461L37.9246 85.6458L39.9381 84.6042L45.3634 81.7981L45.3704 81.7965L55.9544 106.918Z" fill="black"/>
<path d="M45.434 114.974C45.3346 115.012 45.2312 115.038 45.1258 115.053L33.4274 116.668C33.1142 116.712 32.7951 116.65 32.5226 116.491C32.2501 116.332 32.0403 116.086 31.9278 115.794L21.8583 89.8749C21.7861 89.6892 21.7553 89.4903 21.7679 89.2918C21.7805 89.0932 21.8362 88.8997 21.9312 88.7244C22.0262 88.5491 22.1583 88.3961 22.3185 88.2758C22.4787 88.1555 22.6633 88.0709 22.8595 88.0275L33.8607 85.5991C33.9341 85.5827 34.005 85.557 34.0718 85.5226L44.7719 79.9887C44.8634 79.9413 44.9599 79.9041 45.0597 79.8779L56.8354 76.7726C57.1692 76.684 57.5242 76.7209 57.8321 76.8762C58.1399 77.0315 58.3785 77.2941 58.5019 77.6134L67.2819 100.213C67.3673 100.431 67.3952 100.667 67.363 100.898C67.3308 101.13 67.2397 101.349 67.0981 101.536L64.0617 105.57C63.9036 105.78 63.6885 105.941 63.4413 106.035L56.8053 108.558C56.7642 108.573 56.7243 108.592 56.686 108.614L45.6282 114.883C45.5659 114.918 45.501 114.949 45.434 114.974ZM22.8556 88.5843C22.6428 88.6653 22.4712 88.8266 22.3785 89.0328C22.2859 89.2389 22.2798 89.473 22.3615 89.6836L32.4311 115.602C32.5002 115.782 32.6292 115.933 32.7967 116.031C32.9642 116.129 33.1604 116.167 33.3529 116.14L45.0513 114.524C45.1601 114.509 45.2649 114.474 45.3602 114.42L56.4181 108.151C56.4802 108.116 56.545 108.085 56.6119 108.06L63.2479 105.537C63.3998 105.479 63.5321 105.38 63.6292 105.251L66.6657 101.218C66.7527 101.103 66.8088 100.968 66.8285 100.825C66.8483 100.683 66.8311 100.538 66.7786 100.404L57.9986 77.8047C57.9228 77.6085 57.7761 77.447 57.5869 77.3515C57.3977 77.2561 57.1795 77.2334 56.9743 77.2878L45.1987 80.3932C45.1375 80.4096 45.0782 80.4324 45.0219 80.4612L34.3216 85.9953C34.213 86.0512 34.0976 86.093 33.9782 86.1196L22.977 88.5481C22.9357 88.5572 22.8951 88.5693 22.8556 88.5843Z" fill="#E6E6E6"/>
<path d="M31.6759 87.9213L41.6317 113.548L40.0673 113.764L30.1576 88.257L31.6759 87.9213Z" fill="white"/>
<path d="M34.5392 98.2653C34.9358 98.2653 35.2574 97.9472 35.2574 97.5549C35.2574 97.1625 34.9358 96.8445 34.5392 96.8445C34.1426 96.8445 33.821 97.1625 33.821 97.5549C33.821 97.9472 34.1426 98.2653 34.5392 98.2653Z" fill="#3F3D56"/>
<path d="M60.0025 99.0225C60.3991 99.0225 60.7206 98.7044 60.7206 98.3121C60.7206 97.9197 60.3991 97.6017 60.0025 97.6017C59.6058 97.6017 59.2843 97.9197 59.2843 98.3121C59.2843 98.7044 59.6058 99.0225 60.0025 99.0225Z" fill="#0E53AE"/>
<path d="M60.2932 85.4811C61.1082 87.579 60.1274 94.5315 59.7824 96.7633C59.7715 96.8341 59.7419 96.9007 59.6965 96.9565C59.6512 97.0123 59.5917 97.0552 59.5241 97.0809C59.4566 97.1066 59.3833 97.1141 59.3119 97.1027C59.2404 97.0914 59.1733 97.0615 59.1173 97.0161C57.3502 95.5873 51.9148 91.074 51.0997 88.976C50.8678 88.3789 50.7569 87.7424 50.7736 87.1029C50.7903 86.4634 50.9341 85.8335 51.1969 85.249C51.4597 84.6645 51.8364 84.1369 52.3053 83.6964C52.7742 83.2558 53.3262 82.911 53.9299 82.6815C54.5335 82.452 55.177 82.3424 55.8234 82.3589C56.4699 82.3754 57.1068 82.5177 57.6977 82.7777C58.2886 83.0376 58.8219 83.4102 59.2672 83.874C59.7126 84.3379 60.0612 84.884 60.2932 85.4811V85.4811Z" fill="#0E53AE"/>
<path d="M55.6965 89.8673C57.1697 89.8673 58.3639 88.686 58.3639 87.2287C58.3639 85.7714 57.1697 84.5901 55.6965 84.5901C54.2233 84.5901 53.0291 85.7714 53.0291 87.2287C53.0291 88.686 54.2233 89.8673 55.6965 89.8673Z" fill="white"/>
<path d="M52.2702 81.5353C52.3782 81.1433 52.5717 80.7796 52.8371 80.4696C53.1026 80.1597 53.4335 79.9111 53.8066 79.7413C54.1796 79.5716 54.5858 79.4848 54.9964 79.4871C55.4071 79.4895 55.8122 79.5808 56.1833 79.7548L60.9452 75.4968L64.2667 77.7282L57.4568 83.6478C57.12 84.2452 56.5734 84.6995 55.9207 84.9248C55.2679 85.1501 54.5542 85.1308 53.9149 84.8704C53.2756 84.61 52.755 84.1266 52.4519 83.5119C52.1488 82.8973 52.0841 82.1939 52.2702 81.5353Z" fill="#FFB8B8"/>
<path d="M59.9427 82.9251L56.2101 77.9141L64.7197 72.5268L58.6206 63.9177C58.1222 63.2143 57.9037 62.3537 58.0069 61.5009C58.1101 60.648 58.5278 59.8628 59.1799 59.2957C59.832 58.7285 60.6728 58.4192 61.541 58.4271C62.4093 58.4351 63.2441 58.7596 63.8856 59.3385L71.5224 66.2308C72.2498 66.8873 72.8142 67.7011 73.1716 68.6087C73.5291 69.5164 73.6698 70.4934 73.5829 71.4636C73.4961 72.4339 73.184 73.3712 72.6709 74.2026C72.1578 75.034 71.4576 75.737 70.6248 76.2568L59.9427 82.9251Z" fill="#2F2E41"/>
<path d="M30.6985 96.0727C31.0359 95.8412 31.3179 95.5393 31.5246 95.1883C31.7314 94.8373 31.8578 94.4458 31.895 94.0412C31.9321 93.6367 31.8792 93.229 31.7399 92.8469C31.6005 92.4647 31.3782 92.1175 31.0885 91.8295L33.556 85.9678L30.3206 83.6157L26.9536 91.9421C26.4969 92.4555 26.2464 93.1169 26.2497 93.8008C26.2529 94.4847 26.5097 95.1437 26.9713 95.6528C27.4329 96.162 28.0673 96.486 28.7542 96.5634C29.4412 96.6408 30.133 96.4662 30.6985 96.0728V96.0727Z" fill="#FFB8B8"/>
<path d="M32.3657 90.1209L26.5303 88.7767L30.8788 76.3726C31.6282 74.2324 32.7337 72.231 34.1498 70.4511L41.2441 61.5273C41.8929 60.711 42.8423 60.1824 43.8843 60.0572C44.9264 59.932 45.9761 60.2205 46.8036 60.8594C47.6311 61.4983 48.1688 62.4356 48.299 63.4659C48.4293 64.4963 48.1414 65.5357 47.4984 66.3565L39.6263 76.4067L32.3657 90.1209Z" fill="#2F2E41"/>
<path d="M103.479 142.259H0.76958C0.698083 142.259 0.62951 142.231 0.578954 142.181C0.528398 142.131 0.5 142.063 0.5 141.993C0.5 141.922 0.528398 141.854 0.578954 141.804C0.62951 141.754 0.698083 141.726 0.76958 141.726H103.479C103.551 141.726 103.619 141.754 103.67 141.804C103.721 141.854 103.749 141.922 103.749 141.993C103.749 142.063 103.721 142.131 103.67 142.181C103.619 142.231 103.551 142.259 103.479 142.259Z" fill="#CCCCCC"/>
<path d="M143.32 142.126H140.894V1.45916C140.894 1.1409 141.021 0.835672 141.249 0.610628C141.477 0.385585 141.785 0.259155 142.107 0.259155C142.429 0.259155 142.737 0.385585 142.965 0.610628C143.192 0.835672 143.32 1.1409 143.32 1.45916V142.126Z" fill="#E6E6E6"/>
<path d="M160.9 142.259H123.159C123.087 142.259 123.019 142.231 122.968 142.181C122.917 142.131 122.889 142.063 122.889 141.993C122.889 141.922 122.917 141.854 122.968 141.804C123.019 141.754 123.087 141.726 123.159 141.726H160.9C160.971 141.726 161.04 141.754 161.09 141.804C161.141 141.854 161.169 141.922 161.169 141.993C161.169 142.063 161.141 142.131 161.09 142.181C161.04 142.231 160.971 142.259 160.9 142.259Z" fill="#CCCCCC"/>
<path d="M160.155 18.6592H124.854C124.532 18.6588 124.224 18.5323 123.996 18.3073C123.769 18.0824 123.641 17.7773 123.641 17.4592V7.32585C123.641 7.0077 123.769 6.70269 123.996 6.47772C124.224 6.25276 124.532 6.12621 124.854 6.12585H160.158C160.365 6.126 160.568 6.17839 160.749 6.27807L169.878 11.3178C170.066 11.4217 170.223 11.5732 170.332 11.7569C170.442 11.9406 170.499 12.1498 170.5 12.363C170.5 12.5761 170.443 12.7856 170.335 12.9698C170.227 13.1539 170.07 13.3062 169.883 13.4109L160.751 18.5045C160.569 18.6058 160.364 18.659 160.155 18.6592Z" fill="#0E53AE"/>
<path d="M156.934 40.5258H121.632C121.423 40.5256 121.218 40.4723 121.036 40.3711L111.905 35.2775C111.717 35.1728 111.561 35.0205 111.452 34.8363C111.344 34.6521 111.287 34.4427 111.287 34.2296C111.288 34.0164 111.346 33.8072 111.455 33.6235C111.564 33.4398 111.721 33.2882 111.909 33.1844L121.038 28.1446C121.219 28.045 121.423 27.9926 121.63 27.9924H156.934C157.255 27.9928 157.564 28.1193 157.791 28.3443C158.018 28.5693 158.146 28.8743 158.147 29.1924V39.3258C158.146 39.6439 158.018 39.9489 157.791 40.1739C157.564 40.3988 157.255 40.5254 156.934 40.5258Z" fill="#E6E6E6"/>
<path d="M157.068 61.9926H121.767C121.558 61.9924 121.353 61.9392 121.171 61.8379L112.039 56.7443C111.852 56.6396 111.695 56.4873 111.587 56.3031C111.478 56.1189 111.422 55.9095 111.422 55.6964C111.422 55.4832 111.48 55.274 111.59 55.0903C111.699 54.9066 111.856 54.755 112.044 54.6512L121.173 49.6114C121.354 49.5118 121.557 49.4594 121.764 49.4592H157.068C157.39 49.4596 157.698 49.5861 157.926 49.8111C158.153 50.0361 158.281 50.3411 158.281 50.6592V60.7926C158.281 61.1107 158.153 61.4157 157.926 61.6407C157.698 61.8657 157.39 61.9922 157.068 61.9926Z" fill="#E6E6E6"/>
</g>
<defs>
<clipPath id="clip0">
<rect width="170" height="142" fill="white" transform="translate(0.5 0.259155)"/>
</clipPath>
</defs>
</svg>
