<svg xmlns="http://www.w3.org/2000/svg" xmlns:xlink="http://www.w3.org/1999/xlink" viewBox="0 0 110 54"><defs><style>.cls-1{fill:#fff;}.cls-2{fill:url(#Degradado_sin_nombre_11);}.cls-3{fill:url(#Degradado_sin_nombre_11-2);}.cls-4{fill:url(#Degradado_sin_nombre_11-3);}.cls-5{fill:url(#Degradado_sin_nombre_11-4);}.cls-6{fill:url(#Degradado_sin_nombre_11-5);}.cls-7{fill:url(#Degradado_sin_nombre_11-6);}.cls-8{fill:url(#Degradado_sin_nombre_11-7);}.cls-9{fill:url(#Degradado_sin_nombre_11-8);}.cls-10{fill:url(#Degradado_sin_nombre_11-9);}.cls-11{fill:url(#Degradado_sin_nombre_11-10);}.cls-12{fill:url(#Degradado_sin_nombre_11-11);}.cls-13{fill:url(#Degradado_sin_nombre_11-12);}.cls-14{fill:url(#Degradado_sin_nombre_11-13);}.cls-15{fill:url(#Degradado_sin_nombre_11-14);}.cls-16{fill:url(#Degradado_sin_nombre_11-15);}.cls-17{stroke:#fff;stroke-miterlimit:10;stroke-width:1.6px;fill:url(#Degradado_sin_nombre_11-16);}</style><linearGradient id="Degradado_sin_nombre_11" x1="19.81" y1="24.27" x2="19.81" y2="49.28" gradientUnits="userSpaceOnUse"><stop offset="0" stop-color="#4c74c3"/><stop offset="1" stop-color="#173f84"/></linearGradient><linearGradient id="Degradado_sin_nombre_11-2" x1="58.2" y1="16.37" x2="58.2" y2="50.31" xlink:href="#Degradado_sin_nombre_11"/><linearGradient id="Degradado_sin_nombre_11-3" x1="83.82" y1="24.27" x2="83.82" y2="39.9" xlink:href="#Degradado_sin_nombre_11"/><linearGradient id="Degradado_sin_nombre_11-4" x1="32.03" y1="4.73" x2="32.03" y2="23.59" xlink:href="#Degradado_sin_nombre_11"/><linearGradient id="Degradado_sin_nombre_11-5" x1="67.14" y1="24.21" x2="67.14" y2="39.81" xlink:href="#Degradado_sin_nombre_11"/><linearGradient id="Degradado_sin_nombre_11-6" x1="41.65" y1="24.27" x2="41.65" y2="39.81" xlink:href="#Degradado_sin_nombre_11"/><linearGradient id="Degradado_sin_nombre_11-7" x1="50.22" y1="4.73" x2="50.22" y2="19.13" xlink:href="#Degradado_sin_nombre_11"/><linearGradient id="Degradado_sin_nombre_11-8" x1="65.76" y1="40.66" x2="65.76" y2="45.76" xlink:href="#Degradado_sin_nombre_11"/><linearGradient id="Degradado_sin_nombre_11-9" x1="78.62" y1="40.66" x2="78.62" y2="45.76" xlink:href="#Degradado_sin_nombre_11"/><linearGradient id="Degradado_sin_nombre_11-10" x1="72.17" y1="40.64" x2="72.17" y2="45.74" xlink:href="#Degradado_sin_nombre_11"/><linearGradient id="Degradado_sin_nombre_11-11" x1="84.4" y1="40.66" x2="84.4" y2="45.76" xlink:href="#Degradado_sin_nombre_11"/><linearGradient id="Degradado_sin_nombre_11-12" x1="90.39" y1="40.66" x2="90.39" y2="45.76" xlink:href="#Degradado_sin_nombre_11"/><linearGradient id="Degradado_sin_nombre_11-13" x1="96" y1="40.66" x2="96" y2="45.76" xlink:href="#Degradado_sin_nombre_11"/><linearGradient id="Degradado_sin_nombre_11-14" x1="58.44" y1="40.66" x2="58.44" y2="45.76" xlink:href="#Degradado_sin_nombre_11"/><linearGradient id="Degradado_sin_nombre_11-15" x1="101.74" y1="40.66" x2="101.74" y2="45.76" xlink:href="#Degradado_sin_nombre_11"/><linearGradient id="Degradado_sin_nombre_11-16" x1="95.85" y1="39.16" x2="98.95" y2="39.16" xlink:href="#Degradado_sin_nombre_11"/></defs><title>Mesa de trabajo 3</title><g id="DeMotosMiniSVG"><path class="cls-1" d="M103.15,46.08,52.3,46v-5.8l53.1.31a.72.72,0,0,1,.58,1.06l-1.77,3.81A1.33,1.33,0,0,1,103.15,46.08Z"/><path class="cls-2" d="M24.48,49.28a1.56,1.56,0,0,1-1.1-.5l0,0L20.28,41.5l6.45-14.39a1.07,1.07,0,0,0-.41-.07,1.94,1.94,0,0,0-.84.22L19.75,40H12l5.84-13a.51.51,0,0,0-.4-.2,1.15,1.15,0,0,0-.69.36L10.63,40H3.37l6.82-15.77H36.26L25.58,48.75l0,0A1.48,1.48,0,0,1,24.48,49.28Z"/><path class="cls-1" d="M35.69,24.65,25.26,48.53a1.1,1.1,0,0,1-.78.37,1.23,1.23,0,0,1-.82-.37l-3-7L27.21,27a1.45,1.45,0,0,0-.89-.3,2.37,2.37,0,0,0-1.13.33L19.51,39.67H12.59L18.29,27a1,1,0,0,0-.84-.51,1.59,1.59,0,0,0-1,.51L10.39,39.67H3.94l6.5-15H35.69m1.15-.75H10l-.2.45-6.5,15-.46,1.05h8.07l.21-.43,6-12.55a1.21,1.21,0,0,1,.28-.18L11.9,39.36l-.47,1.06H20l.2-.45,5.58-12.43a1.52,1.52,0,0,1,.41-.12L20,41.19l-.13.3.13.3,3,7,.05.12.09.1a2,2,0,0,0,1.37.61,1.82,1.82,0,0,0,1.31-.59l.1-.1.06-.13L36.38,25l.46-1.05Z"/><polygon class="cls-3" points="45.95 42.03 54 23.52 44.45 23.52 45.79 20.74 55.25 20.74 57.13 16.37 65.23 16.37 63.11 20.71 71.95 20.71 70.28 23.58 61.7 23.58 49.98 50.31 45.95 42.03"/><path class="cls-1" d="M64.63,16.75l-2.12,4.33H71.3L70.07,23.2H61.46L50,49.42,46.37,42l8.2-18.88H45l1-2H55.5l1.87-4.36h7.26m1.2-.75H56.88l-.2.45L55,20.36H45.56l-.21.43-1,2-.52,1.07h9.58L45.68,41.72l-.14.32.15.31,3.6,7.4L50,51.21l.65-1.49L62,24H70.5l.22-.37L72,21.46l.65-1.13H63.71l1.59-3.25L65.83,16Z"/><path class="cls-4" d="M73.51,39.81a.6.6,0,0,1-.48-.23.66.66,0,0,1-.11-.53c.41-1.69,1.29-4.61,2.53-5.21l.08,0h7L81,36.92a.48.48,0,0,0,0,.29.35.35,0,0,0,.22.25.63.63,0,0,0,.19,0,.61.61,0,0,0,.51-.28,11,11,0,0,0,1.75-4H75.27l.17-.49a55.44,55.44,0,0,1,3.72-8.24l.11-.19H94.51l.11.17c.16.23.52,1.33-1.78,5.53a.61.61,0,0,1-.54.32L86,30.36a1.05,1.05,0,0,1-.78-.49.54.54,0,0,1,0-.52c.07-.13.17-.28.28-.45.42-.66,1-1.66.62-2.25,0-.06-.08-.08-.09-.08-.35,0-1.18,1.39-1.76,2.94l0,1.4H92l0,.42a16.82,16.82,0,0,1-3.74,8.45l-.11.12Z"/><path class="cls-1" d="M94.31,24.65s.57.82-1.8,5.14a.24.24,0,0,1-.21.12L86,30c-.18,0-.56-.31-.48-.46.37-.68,1.58-2.13.87-3.1A.48.48,0,0,0,86,26.2c-.93,0-2.13,3.25-2.13,3.25l0,1.84h7.73a16.62,16.62,0,0,1-3.65,8.24l-14.41-.09a.24.24,0,0,1-.23-.3c.25-1,1.15-4.39,2.32-5h6.28l-1.21,2.59a.87.87,0,0,0,0,.55.76.76,0,0,0,.45.49.78.78,0,0,0,.33.07,1,1,0,0,0,.82-.45c.6-.91,1.85-3,1.84-4.6H75.8a53.88,53.88,0,0,1,3.69-8.17H94.31m.4-.75H79.05l-.21.37a53.48,53.48,0,0,0-3.75,8.31l-.34,1h.42c-1.24.73-2.1,3.32-2.61,5.39a1,1,0,0,0,1,1.23l14.42.09h.34l.22-.25a17.16,17.16,0,0,0,3.83-8.66l.08-.71a1,1,0,0,0,.77-.51c1.69-3.09,2.3-5.14,1.76-5.93l-.22-.32ZM84.58,29.58a11,11,0,0,1,1.23-2.41,4.07,4.07,0,0,1-.7,1.53l-.29.47a.91.91,0,0,0,0,.9,1.44,1.44,0,0,0,.48.47h-.75v-1Zm-1.59,4h.25A11.33,11.33,0,0,1,81.61,37a.25.25,0,0,1-.19.11h0a.15.15,0,0,1,0-.07l1.2-2.56.42-.91Z"/><path class="cls-5" d="M19.92,23.59,29.85,4.73H41.26a3.41,3.41,0,0,1,2.32,1.2A3.37,3.37,0,0,1,44,8.8c-.18.4-3.75,7.82-5.26,10.22s-3.62,4.57-9.12,4.57ZM35.6,8.78a.75.75,0,0,0-.66.42l-5,10c1.42-.12,1.73-.63,1.73-.63l4.57-9.12A.55.55,0,0,0,36,8.92.63.63,0,0,0,35.6,8.78Z"/><path class="cls-1" d="M41.26,5.11s3.13.2,2.39,3.61c0,0-3.69,7.69-5.21,10.1-1.31,2.08-3.32,4.39-8.8,4.39h-9.1l9.53-18.1H41.26M29.66,19.6h0c1.94-.09,2.29-.85,2.29-.85l4.59-9.18a1,1,0,0,0-.31-.94,1,1,0,0,0-.64-.23,1.15,1.15,0,0,0-1,.63L29.45,19.25a.24.24,0,0,0,.21.35M41.28,4.36H29.62l-.21.4-9.53,18.1L19.3,24H29.64c5.68,0,8-2.4,9.44-4.74S44.18,9.36,44.33,9l0-.08,0-.08a3.75,3.75,0,0,0-.51-3.18A3.79,3.79,0,0,0,41.3,4.36ZM30.55,18.73l4.72-9.36a.39.39,0,0,1,.33-.22.23.23,0,0,1,.16.06s.06,0,.06.14l-4.52,9a1.36,1.36,0,0,1-.75.35Z"/><path class="cls-6" d="M56.22,39.81a.66.66,0,0,1-.56-.31.58.58,0,0,1,0-.57L62,24.56a.62.62,0,0,1,.56-.35l15.54.06a.61.61,0,0,1,.51.28.59.59,0,0,1,0,.59L72.32,39.45a.59.59,0,0,1-.56.36ZM69.36,27a.54.54,0,0,0-.21,0,.55.55,0,0,0-.28.26L64.34,36.7a.46.46,0,0,0,0,.47.32.32,0,0,0,.31.15,1.19,1.19,0,0,0,.45-.1.57.57,0,0,0,.26-.25l4.45-9.21a.5.5,0,0,0,0-.49A.54.54,0,0,0,69.36,27Z"/><path class="cls-1" d="M62.56,24.58l15.54.07a.24.24,0,0,1,.22.33L72,39.29a.24.24,0,0,1-.22.15H56.22a.27.27,0,0,1-.26-.35l6.38-14.37a.24.24,0,0,1,.22-.14M64.67,37.7a1.76,1.76,0,0,0,.59-.13.9.9,0,0,0,.46-.44l4.45-9.2a.9.9,0,0,0-.81-1.29.92.92,0,0,0-.36.07l0,0a.9.9,0,0,0-.44.42L64,36.53a.85.85,0,0,0,0,.86.72.72,0,0,0,.62.31M62.56,23.83h0a1,1,0,0,0-.89.56l-6.39,14.4a1,1,0,0,0,.06.91,1.06,1.06,0,0,0,.88.49H71.76a1,1,0,0,0,.91-.59L79,25.29a1,1,0,0,0-.9-1.39l-15.54-.07ZM64.64,37s0-.05,0-.09l4.53-9.38a.14.14,0,0,1,.06-.07l.09,0a.18.18,0,0,1,.13.08.12.12,0,0,1,0,.13L65,36.81a.12.12,0,0,1-.06.06.88.88,0,0,1-.31.08Z"/><path class="cls-7" d="M30.8,39.81a.63.63,0,0,1-.52-.29.62.62,0,0,1,0-.59l6.5-14.3a.64.64,0,0,1,.56-.36H52.5a.64.64,0,0,1,.52.28.62.62,0,0,1,0,.59L46.73,39.45a.62.62,0,0,1-.57.36Zm13-12.8a.54.54,0,0,0-.21,0,.51.51,0,0,0-.28.26L38.74,36.7a.46.46,0,0,0,0,.47.32.32,0,0,0,.31.15,1.15,1.15,0,0,0,.45-.1.53.53,0,0,0,.26-.25l4.45-9.21a.5.5,0,0,0,0-.49A.54.54,0,0,0,43.76,27Z"/><path class="cls-1" d="M52.5,24.65a.24.24,0,0,1,.22.33L46.38,39.29a.24.24,0,0,1-.21.15H30.8a.24.24,0,0,1-.21-.35l6.5-14.31a.25.25,0,0,1,.22-.13H52.5M39.07,37.7a1.88,1.88,0,0,0,.6-.13.88.88,0,0,0,.45-.44l4.45-9.2a.9.9,0,0,0-1.16-1.22l0,0a.94.94,0,0,0-.44.42L38.4,36.53a.85.85,0,0,0,.05.86.72.72,0,0,0,.62.31M52.5,23.9H37.31a1,1,0,0,0-.89.56L29.91,38.78a1,1,0,0,0,.05.94,1,1,0,0,0,.84.47H46.17a1,1,0,0,0,.9-.59l6.34-14.31a1,1,0,0,0-.08-.94,1,1,0,0,0-.83-.45ZM39,37s0-.05,0-.09l4.53-9.38a.22.22,0,0,1,.06-.07l.09,0a.18.18,0,0,1,.13.08.12.12,0,0,1,0,.13l-4.45,9.21a.12.12,0,0,1-.06.06.88.88,0,0,1-.31.08Z"/><path class="cls-8" d="M44.41,19.13c-.07,0-2.79-.33-2.63-3.62v-.08l3.34-6.84a9,9,0,0,1,7.22-3.86h3A3.69,3.69,0,0,1,58,5.9a3.6,3.6,0,0,1,.61,3V9l-2.12,3.88H49.23L48,15s0,.18,0,.26a.32.32,0,0,0,.22.1h0a.6.6,0,0,0,.52-.25L50.26,13h6.3l-.2.52a9.65,9.65,0,0,1-7.48,5.63H44.41Zm6.37-9.4c0,.1.07.1.18.1a1.53,1.53,0,0,0,.32-.05l.94-1.37A.19.19,0,0,0,52,8.3a.93.93,0,0,0-.24,0Z"/><path class="cls-1" d="M55.39,5.1a2.91,2.91,0,0,1,2.83,3.76l-2,3.63H49l-1.33,2.36a.64.64,0,0,0,.52.91h.12a1,1,0,0,0,.78-.42l1.36-2H56a9.32,9.32,0,0,1-7.18,5.39H44.41s-2.4-.25-2.26-3.22l3.31-6.78A8.73,8.73,0,0,1,52.37,5.1h3M51,10.21a1.64,1.64,0,0,0,.56-.12l1.12-1.63A.61.61,0,0,0,52,7.93a1.18,1.18,0,0,0-.48.12L50.4,9.62c0,.47.28.59.56.59m4.43-5.86h-3a9.48,9.48,0,0,0-7.56,4v0l0,0-3.3,6.78-.07.14v.15c-.14,2.91,1.85,3.9,2.93,4h4.6a10,10,0,0,0,7.78-5.86l.4-1H57l1.85-3.4.06-.11L59,9a4,4,0,0,0-.69-3.32,4.1,4.1,0,0,0-2.87-1.3Zm-5.94,8.89h.19l-1.1,1.61.91-1.61Z"/><path class="cls-9" d="M61.56,45.76v-.35l.53,0a.61.61,0,0,0,.34-.12,2.6,2.6,0,0,0,.36-.59c.16-.33.31-.63.43-.9l.53-1.14.48-1.09a1.16,1.16,0,0,0,.14-.42c-.08-.08-.21-.1-.64-.1h-.12v-.36H70l-.81,1.73h-.34l0-.59c0-.26-.8-.68-1-.7s-.43,0-.61-.05h-.52l-.89,1.89.37,0a1.6,1.6,0,0,0,.66-.3,1.89,1.89,0,0,0,.63-.66l0-.06h.42l-1.24,2.68h-.4l0-.16a1.44,1.44,0,0,0,0-.24,1.41,1.41,0,0,0,0-.28.65.65,0,0,0-.12-.43.5.5,0,0,0-.39-.12h-.28l-1,2.07h.08c.25,0,.56,0,.93-.05a6.38,6.38,0,0,0,1.92-.63l.67-.59.24,0h.2l-.78,1.68Z"/><path class="cls-1" d="M69.77,40.78l-.69,1.48h-.14l0-.46c0-.37-.89-.81-1.12-.83s-.43,0-.62,0h-.62l-1,2.14h.19l.38-.05a1.68,1.68,0,0,0,.72-.32,1.92,1.92,0,0,0,.67-.69h.16l-1.13,2.42H66.4c0-.07,0-.15.06-.25s0-.2,0-.3a.82.82,0,0,0-.14-.51.63.63,0,0,0-.49-.17h-.36L64.41,45.5h.28c.26,0,.57,0,.94,0a6.48,6.48,0,0,0,2-.66l.68-.6h.15l-.66,1.44H61.68v-.11l.42,0a.74.74,0,0,0,.42-.15,2.66,2.66,0,0,0,.38-.63l.44-.89c.12-.28.3-.66.52-1.15s.38-.86.49-1.09a1.46,1.46,0,0,0,.15-.47.17.17,0,0,0-.13-.18,2.56,2.56,0,0,0-.64,0v-.11h6m.4-.25H63.48v.61h.25a3.8,3.8,0,0,1,.51,0,1.74,1.74,0,0,1-.12.33l-.49,1.09c-.22.49-.39.87-.52,1.14s-.27.57-.43.89a2.86,2.86,0,0,1-.33.56.51.51,0,0,1-.27.08l-.41,0h-.24v.6H68l.07-.15.66-1.43.16-.36H68.2l-.07.07-.67.59a6.48,6.48,0,0,1-1.85.6c-.31,0-.58,0-.8,0l.84-1.81h.2a.42.42,0,0,1,.3.09.56.56,0,0,1,.08.34,2.11,2.11,0,0,1,0,.25c0,.09,0,.17,0,.24l-.09.31h.64l.07-.14L67.9,42.1l.17-.35h-.69l-.07.12a2,2,0,0,1-.59.62,1.83,1.83,0,0,1-.62.28H66l.74-1.61h.45c.19,0,.39,0,.61,0s.87.43.9.61l0,.45v.23h.54l.07-.14L70,40.89l.17-.36Z"/><path class="cls-10" d="M74.41,45.76v-.35l.54,0a.67.67,0,0,0,.34-.12,2.79,2.79,0,0,0,.35-.59l.44-.9.52-1.14.49-1.09a1.48,1.48,0,0,0,.14-.42c-.09-.08-.22-.1-.64-.1h-.13v-.36h6.36L82,42.39h-.34l0-.59c0-.26-.79-.68-1-.7s-.43,0-.62-.05H79.5l-.89,1.89.36,0a1.63,1.63,0,0,0,.67-.3,1.89,1.89,0,0,0,.63-.66l0-.06h.42l-1.24,2.68h-.4l0-.16q0-.11.06-.24c0-.1,0-.19,0-.28a.71.71,0,0,0-.11-.43.54.54,0,0,0-.39-.12h-.28l-1,2.07h.07c.26,0,.57,0,.93-.05a6.35,6.35,0,0,0,1.93-.63l.67-.59.23,0h.2l-.77,1.68Z"/><path class="cls-1" d="M82.63,40.78l-.7,1.48h-.14l0-.46c-.05-.37-.9-.81-1.12-.83s-.43,0-.63,0H79.4l-1,2.14h.19L79,43a1.78,1.78,0,0,0,.72-.32,2.1,2.1,0,0,0,.67-.69h.15l-1.12,2.42h-.16c0-.07,0-.15.06-.25a1.53,1.53,0,0,0,0-.3.76.76,0,0,0-.15-.51.62.62,0,0,0-.48-.17h-.36L77.27,45.5h.27c.26,0,.57,0,.94,0a6.54,6.54,0,0,0,2-.66l.67-.6h.15l-.65,1.44H74.54v-.11l.42,0a.68.68,0,0,0,.41-.15,2.66,2.66,0,0,0,.38-.63c.17-.32.31-.62.44-.89l.52-1.15c.23-.5.39-.86.49-1.09a1.46,1.46,0,0,0,.15-.47.17.17,0,0,0-.13-.18,2.46,2.46,0,0,0-.63,0v-.11h6m.39-.25H76.34v.61h.25a4.05,4.05,0,0,1,.51,0c0,.05,0,.15-.13.33l-.48,1.09L76,43.72c-.12.27-.27.57-.43.89a2.35,2.35,0,0,1-.33.56.51.51,0,0,1-.27.08l-.41,0h-.23v.6h6.52l.06-.15.66-1.43L81.7,44h-.64L81,44l-.67.59a6.48,6.48,0,0,1-1.85.6c-.3,0-.57,0-.8,0l.85-1.81h.19a.42.42,0,0,1,.3.09.5.5,0,0,1,.09.34,1.07,1.07,0,0,1,0,.25,1.44,1.44,0,0,1,0,.24l-.09.31h.64l.07-.14,1.13-2.43.16-.35h-.69l-.07.12a1.93,1.93,0,0,1-.59.62,1.75,1.75,0,0,1-.62.28h-.14l.75-1.61H80c.18,0,.38,0,.6,0s.88.43.9.61l0,.45,0,.23h.53l.07-.14.69-1.48.17-.36Z"/><path class="cls-11" d="M68.12,45.73v-.35l.54,0a.64.64,0,0,0,.34-.12,2.18,2.18,0,0,0,.34-.55c.15-.3.34-.67.54-1.11s.37-.79.49-1l.38-.86a1.78,1.78,0,0,0,.2-.54s0,0-.07-.07a2.89,2.89,0,0,0-.64,0h-.13v-.35l3.11,0a3.38,3.38,0,0,1,2.27.64,2,2,0,0,1,.72,1.51,2.42,2.42,0,0,1-.37,1.33,2.75,2.75,0,0,1-1,1,4.58,4.58,0,0,1-1.43.51,9.61,9.61,0,0,1-1.8.15Zm5.1-4.57a.09.09,0,0,0-.06,0l-1.49,3.14-.38.81.45,0c.6,0,.76-.17,1.31-1a4.42,4.42,0,0,0,.86-2.37,1.09,1.09,0,0,0-.23-.63l-.45,0v0Z"/><path class="cls-1" d="M73.22,40.77a3.2,3.2,0,0,1,2.19.61,1.84,1.84,0,0,1,.68,1.41,2.4,2.4,0,0,1-.35,1.27,2.74,2.74,0,0,1-1,.91,4.58,4.58,0,0,1-1.39.5,9.46,9.46,0,0,1-1.78.15H68.25V45.5l.42,0a.68.68,0,0,0,.42-.15,2.47,2.47,0,0,0,.36-.58c.16-.31.34-.68.54-1.12s.37-.79.49-1l.39-.86a2.16,2.16,0,0,0,.21-.59c0-.1-.06-.16-.17-.19a3.29,3.29,0,0,0-.67,0v-.11h3m-1.48,4.55c.68,0,.87-.24,1.41-1.07A4.6,4.6,0,0,0,74,41.81c0-.24-.19-.74-.33-.75l-.48,0h0a.19.19,0,0,0-.17.1c-.08.16-.22.44-.48,1s-.68,1.42-1,2.14l-.38.8c-.06.11,0,.23.18.23h.38m1.48-4.8H70v.61h.25a2.85,2.85,0,0,1,.58,0,3.24,3.24,0,0,1-.18.44l-.31.68-.08.18c-.11.25-.28.6-.48,1l-.54,1.11a2.28,2.28,0,0,1-.31.52.51.51,0,0,1-.27.08l-.42,0H68v.59h3.6a10,10,0,0,0,1.83-.15,5.06,5.06,0,0,0,1.46-.53,3,3,0,0,0,1.06-1,2.57,2.57,0,0,0,.39-1.4,2.11,2.11,0,0,0-.76-1.6,3.46,3.46,0,0,0-2.36-.67Zm-1.76,4.55.11-.23.21-.46,1-2.13.18-.37.28-.59h.37a1.19,1.19,0,0,1,.17.51,4.31,4.31,0,0,1-.85,2.3c-.53.82-.66,1-1.2,1Z"/><path class="cls-12" d="M80.94,45.76v-.35l.51,0a.52.52,0,0,0,.3-.12,2.33,2.33,0,0,0,.36-.65c.17-.36.33-.71.47-1l.3-.71.39-.94a3.71,3.71,0,0,0,.29-.82A1.06,1.06,0,0,0,83,41h-.12v-.36H86.5V41L86,41a.46.46,0,0,0-.35.13,3.23,3.23,0,0,0-.25.5l-1.6,3.71h.26l.58,0a2.25,2.25,0,0,0,1-.5,10.18,10.18,0,0,0,1.09-.93l.71-.73.24,0h.19l-1.12,2.63Z"/><path class="cls-1" d="M86.37,40.78v.11l-.39,0a.55.55,0,0,0-.44.19,3.5,3.5,0,0,0-.26.52L83.6,45.5h.45l.59,0a2.44,2.44,0,0,0,1.06-.53A10.37,10.37,0,0,0,86.8,44l.71-.73h.15l-1,2.38H81.07v-.11l.39,0a.64.64,0,0,0,.38-.15,3.05,3.05,0,0,0,.38-.68c.17-.37.33-.72.47-1s.25-.57.31-.71l.38-.94a4.2,4.2,0,0,0,.3-.87.17.17,0,0,0-.14-.18,3,3,0,0,0-.57,0v-.11h3.4m.25-.25h-3.9v.61H83a3.19,3.19,0,0,1,.45,0,7.19,7.19,0,0,1-.27.72c-.19.49-.32.8-.38.94l-.3.71c-.15.32-.3.67-.47,1a2,2,0,0,1-.34.61.38.38,0,0,1-.23.08l-.38,0-.23,0v.59h6l.06-.16,1-2.37L88,43H87.4l-.07.08-.7.72a11.08,11.08,0,0,1-1.08.92,2.18,2.18,0,0,1-.93.48l-.58,0H84l1.53-3.53a2.42,2.42,0,0,1,.24-.48s.08-.07.25-.08l.39,0h.23v-.6Z"/><path class="cls-13" d="M86.94,45.76v-.35l.5,0a.56.56,0,0,0,.31-.12,3.17,3.17,0,0,0,.36-.65l.46-1c.15-.33.25-.57.31-.71l.38-.94a3.71,3.71,0,0,0,.29-.82C89.45,41,89.31,41,89,41h-.13v-.36h3.65V41L92,41a.46.46,0,0,0-.35.13,3.23,3.23,0,0,0-.25.5l-1.61,3.71H90l.58,0a2.28,2.28,0,0,0,1-.5,11.28,11.28,0,0,0,1.09-.93c.29-.3.53-.54.7-.73l.25,0h.19l-1.12,2.63Z"/><path class="cls-1" d="M92.37,40.78v.11l-.39,0a.56.56,0,0,0-.45.19,4.89,4.89,0,0,0-.26.52L89.59,45.5h.46l.58,0a2.39,2.39,0,0,0,1.06-.53A11.72,11.72,0,0,0,92.8,44c.29-.3.53-.54.7-.73h.16l-1,2.38H87.06v-.11l.39,0a.64.64,0,0,0,.39-.15,3.54,3.54,0,0,0,.38-.68c.17-.37.33-.72.47-1l.3-.71.39-.94a4.2,4.2,0,0,0,.3-.87.18.18,0,0,0-.14-.18,3,3,0,0,0-.57,0v-.11h3.4m.25-.25h-3.9v.61H89a3.43,3.43,0,0,1,.45,0c0,.08-.09.28-.27.72l-.39.94-.3.71c-.14.32-.3.67-.47,1a2.66,2.66,0,0,1-.33.61.38.38,0,0,1-.23.08l-.38,0-.24,0v.59h6l.07-.16,1-2.37L94,43h-.65l-.07.08-.7.72a10,10,0,0,1-1.08.92,2.18,2.18,0,0,1-.93.48l-.57,0H90l1.52-3.53a3.21,3.21,0,0,1,.24-.48.4.4,0,0,1,.26-.08l.38,0h.24v-.6Z"/><path class="cls-14" d="M92.91,45.76v-.35l.55,0a.61.61,0,0,0,.36-.13,2.15,2.15,0,0,0,.35-.55c.16-.3.34-.67.56-1.12l.5-1,.4-.86a1.69,1.69,0,0,0,.21-.55c-.09-.08-.24-.1-.67-.1h-.12v-.36h4V41l-.53,0c-.26,0-.36.08-.4.14a4.12,4.12,0,0,0-.32.56l-1,2-.48,1a2.21,2.21,0,0,0-.21.55,1.87,1.87,0,0,0,.66.06h.12v.36Z"/><path class="cls-1" d="M99,40.78v.11l-.41,0a.65.65,0,0,0-.5.19,4.11,4.11,0,0,0-.33.59l-.47,1-.52,1.08c-.17.35-.33.68-.48,1a2.29,2.29,0,0,0-.23.6c0,.06,0,.11.14.14a2.72,2.72,0,0,0,.65.05v.11H93v-.11l.44,0a.75.75,0,0,0,.43-.15,2.48,2.48,0,0,0,.38-.59c.16-.3.35-.68.56-1.12s.38-.8.51-1.06.25-.55.4-.86a2.24,2.24,0,0,0,.22-.6.18.18,0,0,0-.14-.19,3,3,0,0,0-.66,0v-.11H99m.25-.25H94.92v.61h.25a4.59,4.59,0,0,1,.54,0c0,.06-.07.19-.19.45l-.4.87-.5,1.05c-.22.44-.4.81-.56,1.11a1.91,1.91,0,0,1-.33.52.46.46,0,0,1-.28.09l-.43,0h-.24v.6h4.28v-.61h-.25a4.05,4.05,0,0,1-.51,0,3.53,3.53,0,0,1,.18-.42l.48-1c.16-.35.34-.7.51-1.07l.48-1a3.05,3.05,0,0,1,.3-.55s.1-.07.31-.09l.41,0h.24v-.6Z"/><path class="cls-15" d="M57.2,45.76v-.35l.58,0a.71.71,0,0,0,.38-.13,2.36,2.36,0,0,0,.37-.53c.16-.3.35-.65.56-1.08s1-2,1-2l0,0-3.55,4.13h-.76V41.82c-.11.31-.25.71-.39,1.13-.35,1-.7,2-.86,2.39l.3.09.35,0h.13v.25l-.13.06h-2v-.24l.12-.07.27,0s0-.09,0-.14a.34.34,0,0,1,.09-.2c.1-.23.38-1.05.63-1.77.19-.56.37-1.08.46-1.3A2.55,2.55,0,0,0,55,41l-.3,0h-.13v-.36H58v2.79l2.43-2.79h3.32V41l-.56,0c-.28,0-.39.08-.44.14a9.39,9.39,0,0,0-.54,1l-.74,1.41c-.2.39-.37.73-.51,1s-.24.51-.28.6a.75.75,0,0,0,0,.14,2.89,2.89,0,0,0,.71.06h.13v.36Z"/><path class="cls-1" d="M63.6,40.78v.11l-.43,0a.76.76,0,0,0-.54.19c-.08.11-.27.44-.56,1l-.73,1.41c-.2.39-.37.74-.52,1l-.27.6a.59.59,0,0,0-.06.18c0,.09.06.14.18.17a4.78,4.78,0,0,0,.65,0v.11h-4v-.11l.46,0a.83.83,0,0,0,.46-.15,2.4,2.4,0,0,0,.39-.57q.25-.45.57-1.08l.72-1.44c.26-.53.45-.91.58-1.16l-.07,0-4,4.57h-.57V41.2h0c-.19.47-1.3,3.8-1.49,4.19,0,0,.36.15.43.16a1.69,1.69,0,0,0,.37,0v.07h-1.9v-.07h.26c.12,0,.14-.33.2-.38.23-.48.9-2.6,1.12-3.11s.34-1.14.21-1.18h-.38v-.11h3.16v3l2.61-3H63.6m.25-.25h-3.5l-.08.09-2.17,2.5V40.53H54.44v.61h.43a3.81,3.81,0,0,1-.24.83c-.1.23-.28.76-.47,1.31s-.51,1.48-.64,1.77a.7.7,0,0,0-.08.2.64.64,0,0,0,0,.07h-.16l-.23,0v.55h2.4v-.57h-.58l-.15,0c.15-.41.44-1.22.8-2.27l.16-.45v3.34h.93l.08-.09.4-.47v.56h4.5v-.61h-.25a5.42,5.42,0,0,1-.55,0h0l.27-.6.51-1,.74-1.41c.37-.71.49-.9.53-1a.7.7,0,0,1,.35-.09l.43,0h.24v-.6Zm-6.74,4.76,2.41-2.79L59,43.58c-.21.43-.4.79-.56,1.08a2.16,2.16,0,0,1-.34.5.51.51,0,0,1-.32.09l-.45,0Z"/><path class="cls-16" d="M101.48,45.76l-1.26-4.06-.33.83c-.09.22-.39,1.1-.64,1.83-.14.42-.27.79-.33,1a1.41,1.41,0,0,0,.27.09l.32,0h.13v.25l-.13.06H97.63V45.5l.11-.07.25,0a1.33,1.33,0,0,0,.38-.18c.15-.37,1.25-3.14,1.35-3.41s.17-.44.19-.51a.53.53,0,0,0,0-.14s0-.07-.1-.1a2.59,2.59,0,0,0-.7,0H99v-.36h3l1,3.27s.4-.82.51-1.07l.37-.8c.13-.29.21-.47.24-.57a.63.63,0,0,0,0-.21.19.19,0,0,0-.14-.19,2.16,2.16,0,0,0-.69-.07h-.13v-.36h2.54V41l-.51,0a.69.69,0,0,0-.38.16,2.6,2.6,0,0,0-.4.64l-.73,1.55-1.11,2.37Z"/><path class="cls-1" d="M105.72,40.78v.11l-.39,0a.77.77,0,0,0-.45.19,2.34,2.34,0,0,0-.43.68c-.16.34-.41.85-.73,1.54L103,44.85l-.37.79h-1.06l-1.35-4.32-.46,1.16c-.15.38-.94,2.75-1,2.89s.33.15.4.17h.34v.07H97.75v-.07H98a1.41,1.41,0,0,0,.46-.22l1.38-3.46c.1-.27.17-.45.19-.52a.61.61,0,0,0,0-.17c0-.11-.07-.18-.2-.22a2.9,2.9,0,0,0-.73-.06v-.11H102l1.12,3.49.27-.57c.14-.28.26-.54.38-.79l.37-.8a6.22,6.22,0,0,0,.24-.58.65.65,0,0,0,0-.25.31.31,0,0,0-.21-.31,2.46,2.46,0,0,0-.74-.08v-.11h2.28m.25-.25h-2.78v.61h.25a1.85,1.85,0,0,1,.65.07s0,0,0,.07a.48.48,0,0,1,0,.17l-.24.56-.37.8-.37.78h0l-.92-2.89-.06-.18H98.88v.61h.25a2.47,2.47,0,0,1,.66,0h0s0,0,0,.08a5.24,5.24,0,0,1-.19.5c-.1.27-1.11,2.81-1.35,3.39a1.68,1.68,0,0,1-.28.13l-.23,0H97.5v.55h2.26V45.3h-.54l-.14,0,.29-.85c.24-.72.55-1.61.63-1.82s.14-.33.2-.5l1.14,3.63,0,.18h1.41l.07-.15c.09-.2.21-.47.36-.78l.72-1.52c.32-.69.56-1.21.73-1.55a1.82,1.82,0,0,1,.37-.59.46.46,0,0,1,.31-.13l.38,0,.23,0v-.59Z"/><path class="cls-17" d="M98,39.66A7.34,7.34,0,0,1,97,40l-1.09.35-.08-.13a3.36,3.36,0,0,0,1-.8l.9-1.21A.7.7,0,0,1,98,38a.59.59,0,0,1,.28-.05,1,1,0,0,1,.42.08.43.43,0,0,1,.24.17.78.78,0,0,1,0,.32,1,1,0,0,1-.2.65A2.92,2.92,0,0,1,98,39.66Z"/></g></svg>