<svg width="30" height="30" viewBox="0 0 30 30" fill="none" xmlns="http://www.w3.org/2000/svg">
<path d="M15 0C8.69982 0 3.57422 5.12561 3.57422 11.4258C3.57422 15.4929 4.81143 17.1239 10.7567 24.9615C11.7887 26.322 12.9585 27.864 14.2969 29.6484C14.4629 29.8697 14.7234 30 15.0001 30C15.2767 30 15.5372 29.8697 15.7032 29.6483C17.0337 27.8735 18.1984 26.3374 19.226 24.982C25.1856 17.1216 26.4258 15.4859 26.4258 11.4258C26.4258 5.12561 21.3002 0 15 0ZM17.8253 23.92C16.9813 25.0332 16.0451 26.2681 14.9998 27.6577C13.9474 26.2592 13.0058 25.0179 12.1571 23.8991C6.37406 16.2754 5.33203 14.9016 5.33203 11.4258C5.33203 6.09486 9.66908 1.75781 15 1.75781C20.3309 1.75781 24.668 6.09486 24.668 11.4258C24.668 14.8948 23.6232 16.2728 17.8253 23.92Z" fill="white"/>
<path d="M15 5.27344C11.6076 5.27344 8.84766 8.03338 8.84766 11.4258C8.84766 14.8182 11.6076 17.5781 15 17.5781C18.3924 17.5781 21.1523 14.8182 21.1523 11.4258C21.1523 8.03338 18.3924 5.27344 15 5.27344ZM15 15.8203C12.5769 15.8203 10.6055 13.8489 10.6055 11.4258C10.6055 9.00264 12.5769 7.03125 15 7.03125C17.4231 7.03125 19.3945 9.00264 19.3945 11.4258C19.3945 13.8489 17.4231 15.8203 15 15.8203Z" fill="white"/>
</svg>
