<svg width="33" height="31" viewBox="0 0 33 31" fill="none" xmlns="http://www.w3.org/2000/svg">
<path d="M31.2397 5.03259C31.4872 4.56507 31.6248 4.01512 31.6248 3.43762C31.6248 1.54013 30.0847 0.00012207 28.1873 0.00012207C26.2898 0.00012207 24.7498 1.54007 24.7498 3.43756C24.7498 5.33504 26.2898 6.87506 28.1873 6.87506C28.7648 6.87506 29.3148 6.73754 29.7809 6.49004L31.2384 7.94755C31.4405 8.14964 31.7045 8.25007 31.9685 8.25007C32.2325 8.25007 32.4965 8.14971 32.6972 7.94755C33.1001 7.54467 33.1001 6.89156 32.6972 6.48867L31.2397 5.03259ZM26.8122 3.43756C26.8122 2.68129 27.431 2.06254 28.1873 2.06254C28.9435 2.06254 29.5623 2.68129 29.5623 3.43756C29.5623 4.19382 28.9435 4.81257 28.1873 4.81257C27.431 4.81257 26.8122 4.19382 26.8122 3.43756Z" fill="#F6F6FB"/>
<path d="M2.40626 8.25001H19.5936C20.9205 8.25001 21.9999 7.17063 21.9999 5.84376V2.40626C21.9999 1.07938 20.9205 0 19.5936 0H2.40626C1.07938 6.49602e-05 0 1.07944 0 2.40626V5.84376C0 7.17063 1.07938 8.25001 2.40626 8.25001V8.25001Z" fill="#F6F6FB"/>
<path d="M31.9688 11.6876H23.0314C22.4621 11.6876 22.0001 12.1496 22.0001 12.7189C22.0001 13.2881 22.4621 13.7501 23.0314 13.7501H31.9688C32.538 13.7501 33 13.2881 33 12.7189C33 12.1496 32.538 11.6876 31.9688 11.6876Z" fill="#F6F6FB"/>
<path d="M31.9688 15.8126H23.0314C22.4621 15.8126 22.0001 16.2746 22.0001 16.8439C22.0001 17.4131 22.4621 17.8751 23.0314 17.8751H31.9688C32.538 17.8751 33 17.4131 33 16.8439C33 16.2746 32.538 15.8126 31.9688 15.8126Z" fill="#F6F6FB"/>
<path d="M31.9688 19.9376H23.0314C22.4621 19.9376 22.0001 20.3996 22.0001 20.9689C22.0001 21.5381 22.4621 22.0001 23.0314 22.0001H31.9688C32.538 22.0001 33 21.5381 33 20.9689C33 20.3996 32.538 19.9376 31.9688 19.9376Z" fill="#F6F6FB"/>
<path d="M31.9688 24.0626H23.0314C22.4621 24.0626 22.0001 24.5246 22.0001 25.0939C22.0001 25.6631 22.4621 26.1251 23.0314 26.1251H31.9688C32.538 26.1251 33 25.6631 33 25.0939C33 24.5246 32.538 24.0626 31.9688 24.0626Z" fill="#F6F6FB"/>
<path d="M31.9688 28.1875H23.0314C22.4621 28.1875 22.0001 28.6495 22.0001 29.2187C22.0001 29.788 22.4621 30.25 23.0314 30.25H31.9688C32.538 30.25 33 29.788 33 29.2187C33 28.6495 32.538 28.1875 31.9688 28.1875Z" fill="#F6F6FB"/>
<path d="M2.40626 30.25H16.8437C18.1637 30.25 19.2499 29.1637 19.2499 27.8437V14.0939C19.2499 12.7739 18.1637 11.6876 16.8437 11.6876H2.40626C1.08626 11.6876 0 12.7739 0 14.0939V27.8438C0 29.1638 1.08626 30.25 2.40626 30.25V30.25ZM6.53123 26.125C5.9675 26.125 5.49999 25.6575 5.49999 25.0938V24.585C5.49999 23.1551 6.7925 22.0001 8.38747 22.0001H10.8625C12.4574 22.0001 13.7499 23.1551 13.7499 24.585V25.0938C13.7499 25.6575 13.2824 26.125 12.7187 26.125H6.53123ZM7.56247 18.5626C7.56247 17.4214 8.48374 16.5001 9.62496 16.5001C10.7662 16.5001 11.6874 17.4214 11.6874 18.5626C11.6874 19.7038 10.7662 20.6251 9.62496 20.6251C8.48374 20.6251 7.56247 19.7038 7.56247 18.5626Z" fill="#F6F6FB"/>
</svg>
