<svg width="31" height="30" viewBox="0 0 31 30" fill="none" xmlns="http://www.w3.org/2000/svg">
<g clip-path="url(#clip0)">
<path d="M28.007 22.6945L23.2305 20.3065C22.78 20.081 22.5 19.628 22.5 19.124V17.4335C22.6145 17.2935 22.735 17.134 22.8595 16.958C23.479 16.083 23.9755 15.109 24.3365 14.0585C25.042 13.735 25.5 13.0375 25.5 12.25V10.25C25.5 9.7685 25.32 9.302 25 8.9375V6.278C25.028 6.003 25.138 4.366 23.954 3.0155C22.927 1.844 21.2605 1.25 19 1.25C16.7395 1.25 15.073 1.844 14.046 3.015C13.3285 3.8335 13.087 4.7555 13.014 5.4175C12.157 4.9745 11.147 4.75 10 4.75C4.8055 4.75 4.503 9.1775 4.5 9.25V11.5395C4.176 11.8925 4 12.3 4 12.7045V14.4315C4 14.971 4.2415 15.474 4.6555 15.814C5.068 17.369 6.0825 18.544 6.4775 18.9565V20.328C6.4775 20.7215 6.2635 21.0825 5.892 21.2855L2.5655 23.372C1.2915 24.067 0.5 25.4005 0.5 26.8515V28.75H7.5H8.5H30.5V26.7285C30.5 25.0095 29.5445 23.4635 28.007 22.6945ZM7.5 26.631V27.75H1.5V26.8515C1.5 25.7665 2.092 24.7695 3.0705 24.235L6.3965 22.1485C7.063 21.785 7.477 21.088 7.477 20.328V18.5325L7.318 18.384C7.305 18.372 5.9765 17.117 5.584 15.4065L5.5385 15.2085L5.3675 15.0985C5.1375 14.9495 5 14.7 5 14.4315V12.7045C5 12.5245 5.1225 12.3105 5.3355 12.1175L5.5 11.969L5.499 9.279C5.508 9.1355 5.7685 5.75 10 5.75C11.1965 5.75 12.204 6.0265 13 6.572V8.9375C12.68 9.302 12.5 9.7685 12.5 10.25V12.25C12.5 12.402 12.5175 12.5515 12.5505 12.6965C12.564 12.7545 12.591 12.8075 12.6095 12.8635C12.637 12.9475 12.659 13.034 12.6975 13.1135C12.698 13.1145 12.6985 13.115 12.699 13.116C12.827 13.38 13.0135 13.616 13.2485 13.8045C13.251 13.814 13.254 13.8225 13.2565 13.8315C13.2865 13.946 13.318 14.06 13.352 14.1715L13.3925 14.302C13.3995 14.325 13.408 14.3485 13.4155 14.3715C13.433 14.4255 13.45 14.479 13.468 14.532C13.498 14.6195 13.5295 14.71 13.566 14.8085C13.5815 14.8495 13.5985 14.8865 13.6145 14.927C13.6555 15.0315 13.6965 15.1325 13.7395 15.2325C13.75 15.2565 13.759 15.2825 13.7695 15.306L13.7975 15.369C13.8105 15.398 13.824 15.424 13.837 15.4525C13.886 15.5595 13.934 15.663 13.984 15.763C13.992 15.779 13.9995 15.7965 14.0075 15.8125C14.039 15.875 14.0705 15.934 14.102 15.994C14.156 16.097 14.209 16.194 14.262 16.288C14.288 16.334 14.3135 16.379 14.339 16.4225C14.411 16.5455 14.4795 16.6585 14.546 16.7635C14.5605 16.786 14.5745 16.8095 14.5885 16.831C14.7095 17.0185 14.8145 17.1705 14.9015 17.289C14.9245 17.3205 14.9445 17.3475 14.964 17.374C14.975 17.3885 14.99 17.4095 14.9995 17.4225V19.077C14.9995 19.561 14.7355 20.005 14.311 20.237L12.988 20.9585L12.7575 20.938L12.6635 21.1355L9.8505 22.67C8.4005 23.462 7.5 24.979 7.5 26.631ZM29.5 27.75H8.5V26.631C8.5 25.3455 9.201 24.164 10.3295 23.549L14.79 21.116C15.5365 20.7085 16 19.927 16 19.0775V17.0685V17.068L15.903 16.952L15.884 16.9295C15.883 16.928 15.852 16.8905 15.8015 16.8245C15.7985 16.8205 15.7955 16.8165 15.792 16.8125C15.7655 16.778 15.7345 16.7365 15.699 16.687C15.6985 16.686 15.698 16.6855 15.6975 16.6845C15.623 16.581 15.5295 16.4465 15.4255 16.2845C15.423 16.281 15.421 16.277 15.4185 16.2735C15.3695 16.197 15.3175 16.1135 15.2645 16.025C15.2605 16.0185 15.2565 16.012 15.2525 16.005C15.1395 15.8155 15.0195 15.601 14.9 15.3635C14.9 15.3635 14.8995 15.363 14.8995 15.3625C14.836 15.235 14.7725 15.101 14.7105 14.9615C14.702 14.942 14.693 14.923 14.6845 14.9035C14.657 14.841 14.6295 14.7755 14.6015 14.708C14.5915 14.6835 14.5815 14.658 14.5715 14.633C14.5455 14.5675 14.519 14.5015 14.491 14.426C14.44 14.29 14.392 14.148 14.346 14.0015L14.3185 13.9125C14.3155 13.9025 14.312 13.8925 14.309 13.882C14.262 13.724 14.217 13.5625 14.179 13.3965L14.1335 13.1985L13.963 13.0885C13.673 12.9015 13.5 12.588 13.5 12.25V10.25C13.5 9.9695 13.619 9.708 13.835 9.5125L14 9.364V6.25V6.073L13.9865 6.0625C13.9695 5.7015 13.991 4.595 14.798 3.6745C15.6265 2.729 17.0405 2.25 19 2.25C20.9525 2.25 22.3635 2.7255 23.193 3.664C24.1665 4.7645 24.0055 6.1725 24.0045 6.1845L24 9.364L24.165 9.513C24.381 9.708 24.5 9.9695 24.5 10.25V12.25C24.5 12.6865 24.214 13.0685 23.789 13.1995L23.54 13.276L23.46 13.5235C23.1255 14.564 22.649 15.525 22.043 16.38C21.8945 16.5905 21.75 16.777 21.6245 16.9195L21.5 17.0615V19.124C21.5 20.009 21.9915 20.8045 22.783 21.2005L27.5595 23.5885C28.7565 24.187 29.5 25.39 29.5 26.7285V27.75Z" fill="white"/>
</g>
<defs>
<clipPath id="clip0">
<rect width="30" height="30" fill="white" transform="translate(0.5)"/>
</clipPath>
</defs>
</svg>
